<?xml version="1.0" encoding="utf-8"?>
<!-- Generator: Adobe Illustrator 18.0.0, SVG Export Plug-In . SVG Version: 6.00 Build 0)  -->
<!DOCTYPE svg PUBLIC "-//W3C//DTD SVG 1.1//EN" "http://www.w3.org/Graphics/SVG/1.1/DTD/svg11.dtd">
<svg version="1.1" xmlns="http://www.w3.org/2000/svg" xmlns:xlink="http://www.w3.org/1999/xlink" x="0px" y="0px"
	 viewBox="0 0 480 400" enable-background="new 0 0 480 400" xml:space="preserve">
<g id="Layer_1">
</g>
<g id="Meet_US" display="none">
</g>
<g id="Home">
	<polygon fill="#EFEFEF" points="322.9,286.3 269.8,327.3 252.2,286.3 198.8,327.5 181,286.3 127.9,328.9 54.9,329 54.9,388.9 
		341,388.9 341,328.1 	"/>
	<rect x="0" y="365" fill="#EFEFEF" width="480" height="112"/>
	<path fill="#EFEFEF" d="M436.4,257.3h-2.2c-16.7,0-30.2,13.5-30.2,30.2v132.4c0,16.7,13.5,30.2,30.2,30.2h2.2
		c16.7,0,30.2-13.5,30.2-30.2V287.6C466.7,270.9,453.1,257.3,436.4,257.3z"/>
	<rect x="426.5" y="246.8" fill="#EFEFEF" width="17.8" height="35.5"/>
	<rect x="431.9" y="194" fill="#EFEFEF" width="6.9" height="101.4"/>
	<polygon fill="#EFEFEF" points="83.5,157.2 108.4,157.2 123.6,468.1 67.6,468.1 	"/>
	<path fill="#DDDDDD" d="M108.1,151.7H83.2c-1.5,0-2.8,1.2-2.8,2.8v0c0,1.5,1.2,2.8,2.8,2.8h24.8c1.5,0,2.8-1.2,2.8-2.8v0
		C110.8,152.9,109.6,151.7,108.1,151.7z"/>
	<rect x="402.9" y="296.1" fill="#DDDDDD" width="64.9" height="6.9"/>
	<rect x="402.9" y="309.9" fill="#DDDDDD" width="64.9" height="6.9"/>
	<circle fill="#EFEFEF" cx="98.1" cy="126.9" r="17.6"/>
	<circle fill="#EFEFEF" cx="131.3" cy="93.5" r="22.4"/>
	<g>
		<path fill="#FFFFFF" d="M87.4,138.2c-0.1,0-0.2,0-0.3-0.1c-0.2-0.1-0.3-0.3-0.3-0.6v-19.9c0-1.2,0.9-2.1,2.1-2.1h18.5
			c1.2,0,2.1,0.9,2.1,2.1v14.7c0,1.2-0.9,2.1-2.1,2.1H94.7l-7,3.7C87.6,138.2,87.5,138.2,87.4,138.2z M88.8,116.9
			c-0.4,0-0.8,0.3-0.8,0.8v18.8l6.2-3.3c0.1-0.1,0.2-0.1,0.3-0.1h12.8c0.4,0,0.8-0.3,0.8-0.8v-14.7c0-0.4-0.3-0.8-0.8-0.8H88.8z"/>
		<g>
			<path fill="#FFFFFF" d="M98.5,126.3h-0.9c-0.6,0-1-0.4-1-1v-0.9c0-0.6,0.4-1,1-1h0.9c0.6,0,1,0.4,1,1v0.9
				C99.5,125.9,99.1,126.3,98.5,126.3z"/>
			<path fill="#FFFFFF" d="M103.4,126.3h-0.9c-0.6,0-1-0.4-1-1v-0.9c0-0.6,0.4-1,1-1h0.9c0.6,0,1,0.4,1,1v0.9
				C104.4,125.9,104,126.3,103.4,126.3z"/>
			<path fill="#FFFFFF" d="M93.6,126.3h-0.9c-0.6,0-1-0.4-1-1v-0.9c0-0.6,0.4-1,1-1h0.9c0.6,0,1,0.4,1,1v0.9
				C94.6,125.9,94.2,126.3,93.6,126.3z"/>
		</g>
	</g>
	<g>
		<path fill="#FFFFFF" d="M142.6,101.3h-22.7c-1.4,0-2.5-1.1-2.5-2.5V82.2c0-1.4,1.1-2.5,2.5-2.5h22.7c1.4,0,2.5,1.1,2.5,2.5v16.5
			C145.2,100.1,144,101.3,142.6,101.3z M119.9,81.3c-0.5,0-0.9,0.4-0.9,0.9v16.5c0,0.5,0.4,0.9,0.9,0.9h22.7c0.5,0,0.9-0.4,0.9-0.9
			V82.2c0-0.5-0.4-0.9-0.9-0.9H119.9z"/>
		<path fill="#FFFFFF" d="M142.6,107.3h-22.7c-1.4,0-2.5-1.1-2.5-2.5c0-1.4,1.1-2.5,2.5-2.5h22.7c1.4,0,2.5,1.1,2.5,2.5
			C145.2,106.1,144,107.3,142.6,107.3z M119.9,103.8c-0.5,0-0.9,0.4-0.9,0.9s0.4,0.9,0.9,0.9h22.7c0.5,0,0.9-0.4,0.9-0.9
			s-0.4-0.9-0.9-0.9H119.9z"/>
		<polygon fill="#FFFFFF" points="124.1,91.2 119.7,85.2 120.7,83.5 128.2,84.4 127.2,86.1 122,85.4 125.2,89.5 		"/>
		<path fill="#FFFFFF" d="M128.5,90.9l-0.5-0.3l0.6-1.1c0.1-0.1,0.1-0.2,0.1-0.3c0-0.1-0.1-0.2-0.2-0.2c-0.1-0.1-0.2-0.1-0.3,0
			c-0.1,0-0.2,0.1-0.3,0.2l-0.6,1.1l-0.5-0.3l1.5-2.6l0.5,0.3l-0.6,1c0.1,0,0.1,0,0.2-0.1c0.1,0,0.1,0,0.2,0c0.1,0,0.1,0,0.2,0
			c0.1,0,0.1,0,0.2,0.1c0.2,0.1,0.3,0.3,0.4,0.5c0,0.2,0,0.4-0.1,0.6L128.5,90.9z"/>
		<path fill="#FFFFFF" d="M130,91.7c-0.1,0-0.2,0-0.2,0c-0.1,0-0.2-0.1-0.3-0.1c-0.1,0-0.2-0.1-0.2-0.2c-0.1-0.1-0.1-0.1-0.1-0.2
			c0-0.1,0-0.2,0-0.2c0-0.1,0.1-0.2,0.1-0.3l0.5-0.9l-0.2-0.1l0.3-0.5l0.2,0.1l0.3-0.5l0.5,0.3l-0.3,0.5l0.4,0.3l-0.3,0.5l-0.4-0.3
			l-0.5,0.8c-0.1,0.1,0,0.2,0.1,0.3c0.1,0.1,0.2,0.1,0.3,0.1L130,91.7z"/>
		<path fill="#FFFFFF" d="M132.7,93.4l0.6-1.1c0.1-0.1,0.1-0.2,0.1-0.3c0-0.1-0.1-0.2-0.2-0.2c-0.1-0.1-0.2-0.1-0.3,0
			c-0.1,0-0.2,0.1-0.3,0.2l-0.6,1.1l-0.5-0.3l0.6-1.1c0.1-0.1,0.1-0.2,0.1-0.3c0-0.1-0.1-0.2-0.2-0.2c-0.1-0.1-0.2-0.1-0.3,0
			c-0.1,0-0.2,0.1-0.3,0.2l-0.6,1.1l-0.5-0.3l1.1-1.9l0.5,0.3l-0.2,0.3c0.1,0,0.1,0,0.2-0.1c0.1,0,0.1,0,0.2,0c0.1,0,0.1,0,0.2,0
			c0.1,0,0.1,0,0.2,0.1c0.1,0.1,0.2,0.2,0.3,0.3c0.1,0.1,0.1,0.2,0.1,0.3c0.1-0.1,0.3-0.1,0.4-0.1c0.1,0,0.3,0.1,0.4,0.1
			c0.2,0.1,0.3,0.3,0.4,0.5c0,0.2,0,0.4-0.1,0.6l-0.7,1.2L132.7,93.4z"/>
		
			<rect x="133.3" y="92.5" transform="matrix(-0.5061 0.8625 -0.8625 -0.5061 283.0618 23.5663)" fill="#FFFFFF" width="3" height="0.6"/>
		<polygon fill="#FFFFFF" points="141.8,98.1 134.4,97.2 135.4,95.5 140.5,96.2 137.4,92.1 138.4,90.4 142.8,96.4 		"/>
	</g>
	<rect x="204" y="339.2" fill="#DDDDDD" width="37.3" height="14.7"/>
	<rect x="259.6" y="339.2" fill="#DDDDDD" width="37.3" height="14.7"/>
	<path fill="#EFEFEF" d="M87.5,355H22.3c-1.9,0-3.4-1.5-3.4-3.4l0,0c0-1.9,1.5-3.4,3.4-3.4h65.3c1.9,0,3.4,1.5,3.4,3.4l0,0
		C91,353.4,89.4,355,87.5,355z"/>
	<path fill="#EFEFEF" d="M18.8,417v-65.5c0-1.9,1.5-3.4,3.4-3.4h0c1.9,0,3.4,1.5,3.4,3.4V417c0,1.9-1.5,3.4-3.4,3.4h0
		C20.4,420.5,18.8,418.9,18.8,417z"/>
	<rect x="311.1" y="352.9" fill="#EFEFEF" width="112.5" height="6.9"/>
	<path fill="#EFEFEF" d="M377.7,363.5h-20.5c-3.9,0-7.1-3.2-7.1-7.1l0,0c0-3.9,3.2-7.1,7.1-7.1h20.5c3.9,0,7.1,3.2,7.1,7.1l0,0
		C384.8,360.3,381.6,363.5,377.7,363.5z"/>
</g>
</svg>
