<?xml version="1.0" encoding="utf-8"?>
<!-- Generator: Adobe Illustrator 18.0.0, SVG Export Plug-In . SVG Version: 6.00 Build 0)  -->
<!DOCTYPE svg PUBLIC "-//W3C//DTD SVG 1.1//EN" "http://www.w3.org/Graphics/SVG/1.1/DTD/svg11.dtd">
<svg version="1.1" id="Layer_1" xmlns="http://www.w3.org/2000/svg" xmlns:xlink="http://www.w3.org/1999/xlink" x="0px" y="0px"
	 viewBox="0 0 1160 545" enable-background="new 0 0 1160 545" xml:space="preserve">
<g>
	<rect x="117.3" y="504.6" fill="#EFEFEF" width="976.5" height="135.2"/>
	<rect x="124.7" y="443.3" fill="#EFEFEF" width="260.4" height="83.2"/>
	<rect x="947" y="442.8" fill="#EFEFEF" width="149.2" height="100.2"/>
	<polygon fill="#EFEFEF" points="191.6,165.3 222.8,165.3 241.9,625.3 171.7,625.3 	"/>
	<polygon fill="#EFEFEF" points="288.7,232 319.9,232 338.9,621.8 268.7,621.8 	"/>
	<path fill="#EFEFEF" d="M895.3,353.4h-18.1c-16.7,0-30.2,13.5-30.2,30.2V565c0,16.7,13.5,30.2,30.2,30.2h18.1
		c16.7,0,30.2-13.5,30.2-30.2V383.7C925.5,367,912,353.4,895.3,353.4z"/>
	<path fill="#EFEFEF" d="M1030.7,308h-18.1c-16.7,0-30.2,13.5-30.2,30.2v181.3c0,16.7,13.5,30.2,30.2,30.2h18.1
		c16.7,0,30.2-13.5,30.2-30.2V338.3C1060.9,321.6,1047.4,308,1030.7,308z"/>
	<rect x="1010.5" y="303.3" fill="#EFEFEF" width="22.3" height="9.4"/>
	<rect x="875.1" y="340.2" fill="#EFEFEF" width="22.3" height="44.5"/>
	<rect x="867.8" y="384.7" fill="#EFEFEF" width="75.3" height="8.6"/>
	<rect x="935" y="315.7" fill="#EFEFEF" width="70.6" height="8.6"/>
	<rect x="927.2" y="274" fill="#EFEFEF" width="173.3" height="8.6"/>
	<rect x="1017.3" y="274" fill="#EFEFEF" width="8.6" height="127.1"/>
	<rect x="881.9" y="274" fill="#EFEFEF" width="8.6" height="127.1"/>
	<rect x="935" y="315.7" fill="#EFEFEF" width="8.6" height="77.4"/>
	<path fill="#DDDDDD" d="M222.8,158.3h-31.1c-1.9,0-3.5,1.6-3.5,3.5l0,0c0,1.9,1.6,3.5,3.5,3.5h31.1c1.9,0,3.5-1.6,3.5-3.5l0,0
		C226.3,159.9,224.7,158.3,222.8,158.3z"/>
	<path fill="#DDDDDD" d="M319.4,225h-31.1c-1.9,0-3.5,1.6-3.5,3.5v0c0,1.9,1.6,3.5,3.5,3.5h31.1c1.9,0,3.5-1.6,3.5-3.5v0
		C322.9,226.6,321.3,225,319.4,225z"/>
	<rect x="845.6" y="402" fill="#DDDDDD" width="81.3" height="8.7"/>
	<rect x="845.6" y="419.3" fill="#DDDDDD" width="81.3" height="8.7"/>
	<rect x="981" y="341.6" fill="#DDDDDD" width="81.3" height="10.8"/>
	<rect x="981" y="373.9" fill="#DDDDDD" width="81.3" height="10.8"/>
	<rect x="198.7" y="488.4" fill="#DDDDDD" width="22.5" height="22.5"/>
	<rect x="243.6" y="488.4" fill="#DDDDDD" width="22.5" height="22.5"/>
	<rect x="288.6" y="488.4" fill="#DDDDDD" width="22.5" height="22.5"/>
	<circle fill="#EFEFEF" cx="207.2" cy="140" r="10"/>
	<circle fill="#EFEFEF" cx="231" cy="106.6" r="22.1"/>
	<circle fill="#EFEFEF" cx="273.3" cy="65.8" r="28.1"/>
	<circle fill="#EFEFEF" cx="307.5" cy="193.7" r="22.1"/>
	<circle fill="#EFEFEF" cx="349.2" cy="151.8" r="28.1"/>
	<g id="Mail_x5F_1_13_">
		<g>
			<path fill="#FFFFFF" d="M212.7,134.5c-0.2-0.2-0.5-0.3-0.8-0.3h-9.6c-0.3,0-0.6,0.1-0.8,0.3c-0.2,0.2-0.3,0.5-0.3,0.8v9.6
				c0,0.1,0,0.1,0,0.2c0,0,0,0,0,0c0,0.1,0,0.1,0.1,0.2c0,0,0,0,0,0c0.1,0.1,0.1,0.2,0.2,0.3c0,0,0.1,0.1,0.2,0.1c0,0,0,0,0,0
				c0.1,0,0.1,0.1,0.2,0.1c0,0,0,0,0,0c0.1,0,0.1,0,0.2,0.1c0,0,0,0,0,0c0.1,0,0.1,0,0.2,0h9.6c0.1,0,0.1,0,0.2,0c0,0,0,0,0,0
				c0.1,0,0.1,0,0.2-0.1c0,0,0,0,0,0c0.1,0,0.1-0.1,0.2-0.1c0,0,0,0,0,0c0.1,0,0.1-0.1,0.2-0.1c0.1-0.1,0.2-0.2,0.2-0.3c0,0,0,0,0,0
				c0-0.1,0-0.1,0.1-0.2c0,0,0,0,0,0c0-0.1,0-0.1,0-0.2v-9.6C213,135,212.9,134.7,212.7,134.5z M202,136.5l3.6,3.6l-3.6,3.6V136.5z
				 M212.3,145c0,0,0,0.1-0.1,0.1c0,0-0.1,0.1-0.1,0.1c0,0-0.1,0-0.1,0h-9.6c-0.1,0-0.1,0-0.1,0c0,0-0.1,0-0.1-0.1
				c0,0-0.1-0.1-0.1-0.1s0-0.1,0-0.1c0-0.1,0-0.2,0.1-0.3l4-4l0.3,0.3c0.2,0.2,0.5,0.3,0.8,0.3s0.6-0.1,0.8-0.3l0.3-0.3l4,4
				c0.1,0.1,0.1,0.2,0.1,0.3C212.3,144.9,212.3,145,212.3,145z M212.3,143.7l-3.6-3.6l3.6-3.6V143.7z M212.2,135.6l-4.8,4.8
				c-0.1,0.1-0.4,0.1-0.5,0l-4.8-4.8c-0.1-0.1-0.1-0.2-0.1-0.3c0-0.1,0-0.2,0.1-0.3c0.1-0.1,0.2-0.1,0.3-0.1h9.6
				c0.1,0,0.2,0,0.3,0.1c0.1,0.1,0.1,0.2,0.1,0.3C212.3,135.4,212.3,135.5,212.2,135.6z"/>
		</g>
	</g>
	<g>
		<path fill="#FFFFFF" d="M241.6,119.5h-21.3c-1.3,0-2.4-1.1-2.4-2.4V96c0-1.3,1.1-2.4,2.4-2.4h21.3c1.3,0,2.4,1.1,2.4,2.4v21.1
			C244,118.5,242.9,119.5,241.6,119.5z M220.3,95.2c-0.5,0-0.9,0.4-0.9,0.9v21.1c0,0.5,0.4,0.9,0.9,0.9h21.3c0.5,0,0.9-0.4,0.9-0.9
			V96c0-0.5-0.4-0.9-0.9-0.9H220.3z"/>
		<path fill="#FFFFFF" d="M223.5,101.2H222c-0.6,0-1,0.4-1,1v1.5c0,0.6,0.4,1,1,1h1.5c0.6,0,1-0.4,1-1v-1.5
			C224.5,101.6,224.1,101.2,223.5,101.2z"/>
		<path fill="#FFFFFF" d="M223.5,106.9H222c-0.6,0-1,0.4-1,1v1.5c0,0.6,0.4,1,1,1h1.5c0.6,0,1-0.4,1-1v-1.5
			C224.5,107.4,224.1,106.9,223.5,106.9z"/>
		<path fill="#FFFFFF" d="M223.5,112.6H222c-0.6,0-1,0.4-1,1v1.5c0,0.6,0.4,1,1,1h1.5c0.6,0,1-0.4,1-1v-1.5
			C224.5,113.1,224.1,112.6,223.5,112.6z"/>
		<rect x="218.7" y="98.6" fill="#FFFFFF" width="24.5" height="1.5"/>
		<rect x="225.7" y="99.4" fill="#FFFFFF" width="1.5" height="19.4"/>
		<path fill="#FFFFFF" d="M236.2,103.7h-7c-0.4,0-0.8-0.3-0.8-0.8c0-0.4,0.3-0.8,0.8-0.8h7c0.4,0,0.8,0.3,0.8,0.8
			C237,103.3,236.6,103.7,236.2,103.7z"/>
		<path fill="#FFFFFF" d="M240.6,110.3h-11.3c-0.4,0-0.8-0.3-0.8-0.8s0.3-0.8,0.8-0.8h11.3c0.4,0,0.8,0.3,0.8,0.8
			S241,110.3,240.6,110.3z"/>
		<path fill="#FFFFFF" d="M240.6,113.2h-11.3c-0.4,0-0.8-0.3-0.8-0.8c0-0.4,0.3-0.8,0.8-0.8h11.3c0.4,0,0.8,0.3,0.8,0.8
			C241.3,112.9,241,113.2,240.6,113.2z"/>
		<path fill="#FFFFFF" d="M240.6,116.2h-11.3c-0.4,0-0.8-0.3-0.8-0.8c0-0.4,0.3-0.8,0.8-0.8h11.3c0.4,0,0.8,0.3,0.8,0.8
			C241.3,115.8,241,116.2,240.6,116.2z"/>
		<circle fill="#FFFFFF" cx="238.1" cy="96.9" r="0.8"/>
		<circle fill="#FFFFFF" cx="240.1" cy="96.9" r="0.8"/>
		<circle fill="#FFFFFF" cx="236.2" cy="96.9" r="0.8"/>
	</g>
	<g>
		<path fill="#FFFFFF" d="M274.6,59.1c-0.3-0.3-0.6-0.5-1-0.6c-0.4-0.2-0.8-0.2-1.3-0.2c-0.5,0-0.9,0.1-1.3,0.2
			c-0.4,0.2-0.7,0.4-1,0.7c-0.3,0.3-0.5,0.6-0.7,1c-0.2,0.4-0.2,0.8-0.2,1.2v0c0,0.4,0.1,0.8,0.2,1.2c0.2,0.4,0.4,0.7,0.7,1
			c0.3,0.3,0.6,0.5,1,0.6c0.4,0.2,0.8,0.2,1.3,0.2c0.5,0,0.9-0.1,1.3-0.2c0.4-0.2,0.7-0.4,1-0.7c0.3-0.3,0.5-0.6,0.7-1
			c0.2-0.4,0.2-0.8,0.2-1.2v0c0-0.4-0.1-0.8-0.2-1.2C275.1,59.7,274.9,59.4,274.6,59.1z M273.9,61.3c0,0.2,0,0.4-0.1,0.6
			c-0.1,0.2-0.2,0.4-0.3,0.5c-0.1,0.1-0.3,0.3-0.5,0.3c-0.2,0.1-0.4,0.1-0.6,0.1c-0.2,0-0.4,0-0.6-0.1c-0.2-0.1-0.4-0.2-0.5-0.4
			c-0.1-0.1-0.2-0.3-0.3-0.5c-0.1-0.2-0.1-0.4-0.1-0.6v0c0-0.2,0-0.4,0.1-0.6c0.1-0.2,0.2-0.4,0.3-0.5c0.1-0.1,0.3-0.3,0.5-0.3
			c0.2-0.1,0.4-0.1,0.6-0.1c0.2,0,0.4,0,0.6,0.1c0.2,0.1,0.4,0.2,0.5,0.4c0.1,0.1,0.2,0.3,0.3,0.5C273.8,60.9,273.9,61.1,273.9,61.3
			L273.9,61.3z"/>
		<path fill="#FFFFFF" d="M283.7,58.2c-0.4,0-0.8,0.1-1.1,0.2c-0.3,0.2-0.6,0.4-0.9,0.7c-0.2-0.3-0.4-0.5-0.7-0.7
			c-0.3-0.2-0.6-0.2-1-0.2c-0.2,0-0.4,0-0.6,0.1c-0.2,0.1-0.3,0.1-0.5,0.2c-0.1,0.1-0.3,0.2-0.4,0.3c-0.1,0.1-0.2,0.2-0.3,0.4v-0.8
			h-1.7v5.9h1.7v-3.3c0-0.4,0.1-0.7,0.3-0.9c0.2-0.2,0.4-0.3,0.7-0.3c0.3,0,0.6,0.1,0.7,0.3c0.2,0.2,0.3,0.5,0.3,0.9v3.3h1.7v-3.3
			c0-0.4,0.1-0.7,0.3-0.9c0.2-0.2,0.4-0.3,0.7-0.3c0.3,0,0.6,0.1,0.7,0.3c0.2,0.2,0.3,0.5,0.3,0.9v3.3h1.7v-3.8
			c0-0.7-0.2-1.3-0.5-1.6C284.8,58.4,284.4,58.2,283.7,58.2z"/>
		<path fill="#FFFFFF" d="M266.9,62.7c-0.2,0.1-0.5,0.2-0.7,0.2c-0.2,0-0.4,0-0.6-0.1c-0.2-0.1-0.3-0.2-0.5-0.3
			c-0.1-0.1-0.2-0.3-0.3-0.5c-0.1-0.2-0.1-0.4-0.1-0.6v0c0-0.2,0-0.4,0.1-0.6c0.1-0.2,0.2-0.4,0.3-0.5c0.1-0.1,0.3-0.3,0.5-0.3
			c0.2-0.1,0.4-0.1,0.6-0.1c0.3,0,0.6,0.1,0.8,0.2c0.2,0.1,0.4,0.3,0.6,0.5l1-1.1c-0.3-0.3-0.6-0.6-1-0.7c-0.4-0.2-0.8-0.3-1.4-0.3
			c-0.4,0-0.9,0.1-1.2,0.2c-0.4,0.2-0.7,0.4-1,0.7c-0.3,0.3-0.5,0.6-0.6,1c-0.2,0.4-0.2,0.8-0.2,1.2v0c0,0.4,0.1,0.8,0.2,1.2
			c0.2,0.4,0.4,0.7,0.6,1c0.3,0.3,0.6,0.5,1,0.7c0.4,0.2,0.8,0.2,1.2,0.2c0.6,0,1.1-0.1,1.4-0.3c0.4-0.2,0.7-0.5,1-0.8l-1-1
			C267.3,62.5,267.1,62.6,266.9,62.7z"/>
		<rect x="260.3" y="62.5" fill="#FFFFFF" width="1.8" height="1.8"/>
		<path fill="#FFFFFF" d="M287.8,75.7h-28.7c-1.8,0-3.2-1.4-3.2-3.2V51.6c0-1.8,1.4-3.2,3.2-3.2h28.7c1.8,0,3.2,1.4,3.2,3.2v20.8
			C291,74.3,289.6,75.7,287.8,75.7z M259.1,50.5c-0.6,0-1.2,0.5-1.2,1.2v20.8c0,0.6,0.5,1.2,1.2,1.2h28.7c0.6,0,1.2-0.5,1.2-1.2
			V51.6c0-0.6-0.5-1.2-1.2-1.2H259.1z"/>
		<path fill="#FFFFFF" d="M287.8,83.3h-28.7c-1.8,0-3.2-1.4-3.2-3.2s1.4-3.2,3.2-3.2h28.7c1.8,0,3.2,1.4,3.2,3.2
			S289.6,83.3,287.8,83.3z M259.1,78.9c-0.6,0-1.2,0.5-1.2,1.2s0.5,1.2,1.2,1.2h28.7c0.6,0,1.2-0.5,1.2-1.2s-0.5-1.2-1.2-1.2H259.1z
			"/>
	</g>
	<g>
		<path fill="#FFFFFF" d="M294.2,207.9c-0.2,0-0.3,0-0.4-0.1c-0.3-0.2-0.4-0.4-0.4-0.7v-24.9c0-1.5,1.2-2.6,2.6-2.6h23.2
			c1.5,0,2.6,1.2,2.6,2.6v18.4c0,1.5-1.2,2.6-2.6,2.6h-15.8l-8.8,4.7C294.4,207.9,294.3,207.9,294.2,207.9z M295.9,181.2
			c-0.5,0-0.9,0.4-0.9,0.9v23.5l7.8-4.1c0.1-0.1,0.3-0.1,0.4-0.1h16c0.5,0,0.9-0.4,0.9-0.9v-18.4c0-0.5-0.4-0.9-0.9-0.9H295.9z"/>
		<g>
			<path fill="#FFFFFF" d="M308.4,193h-1.7c-0.6,0-1-0.4-1-1v-1.7c0-0.6,0.4-1,1-1h1.7c0.6,0,1,0.4,1,1v1.7
				C309.4,192.6,308.9,193,308.4,193z"/>
			<path fill="#FFFFFF" d="M314.5,193h-1.7c-0.6,0-1-0.4-1-1v-1.7c0-0.6,0.4-1,1-1h1.7c0.6,0,1,0.4,1,1v1.7
				C315.5,192.6,315.1,193,314.5,193z"/>
			<path fill="#FFFFFF" d="M302.2,193h-1.7c-0.6,0-1-0.4-1-1v-1.7c0-0.6,0.4-1,1-1h1.7c0.6,0,1,0.4,1,1v1.7
				C303.2,192.6,302.8,193,302.2,193z"/>
		</g>
	</g>
	<g>
		<path fill="#FFFFFF" d="M363.5,161.6h-28.5c-1.8,0-3.2-1.4-3.2-3.2v-20.7c0-1.8,1.4-3.2,3.2-3.2h28.5c1.8,0,3.2,1.4,3.2,3.2v20.7
			C366.6,160.2,365.2,161.6,363.5,161.6z M334.9,136.6c-0.6,0-1.1,0.5-1.1,1.1v20.7c0,0.6,0.5,1.1,1.1,1.1h28.5
			c0.6,0,1.1-0.5,1.1-1.1v-20.7c0-0.6-0.5-1.1-1.1-1.1H334.9z"/>
		<path fill="#FFFFFF" d="M363.5,169.1h-28.5c-1.8,0-3.2-1.4-3.2-3.2s1.4-3.2,3.2-3.2h28.5c1.8,0,3.2,1.4,3.2,3.2
			S365.2,169.1,363.5,169.1z M334.9,164.8c-0.6,0-1.1,0.5-1.1,1.1s0.5,1.1,1.1,1.1h28.5c0.6,0,1.1-0.5,1.1-1.1s-0.5-1.1-1.1-1.1
			H334.9z"/>
		<polygon fill="#FFFFFF" points="340.3,149 334.7,141.4 336,139.3 345.3,140.4 344,142.6 337.6,141.7 341.5,146.8 		"/>
		<path fill="#FFFFFF" d="M345.7,148.5l-0.7-0.4l0.8-1.3c0.1-0.2,0.1-0.3,0.1-0.4c0-0.1-0.1-0.2-0.2-0.3c-0.1-0.1-0.3-0.1-0.4-0.1
			c-0.1,0-0.2,0.1-0.3,0.3l-0.8,1.3l-0.7-0.4l1.9-3.2l0.7,0.4l-0.7,1.2c0.1,0,0.1-0.1,0.2-0.1c0.1,0,0.1,0,0.2,0c0.1,0,0.2,0,0.2,0
			c0.1,0,0.2,0.1,0.2,0.1c0.3,0.2,0.4,0.3,0.5,0.6c0,0.2,0,0.5-0.2,0.8L345.7,148.5z"/>
		<path fill="#FFFFFF" d="M347.6,149.6c-0.1,0-0.2,0-0.3,0c-0.1,0-0.2-0.1-0.3-0.1c-0.1-0.1-0.2-0.1-0.3-0.2
			c-0.1-0.1-0.1-0.2-0.1-0.2c0-0.1,0-0.2,0-0.3c0-0.1,0.1-0.2,0.1-0.4l0.7-1.1l-0.3-0.2l0.3-0.6l0.3,0.2l0.4-0.6l0.7,0.4l-0.4,0.6
			l0.6,0.3l-0.3,0.6l-0.6-0.3l-0.6,1c-0.1,0.2-0.1,0.3,0.1,0.4c0.1,0.1,0.2,0.1,0.4,0.1L347.6,149.6z"/>
		<path fill="#FFFFFF" d="M351,151.7l0.8-1.3c0.1-0.2,0.1-0.3,0.1-0.4c0-0.1-0.1-0.2-0.2-0.3c-0.1-0.1-0.2-0.1-0.4-0.1
			c-0.1,0-0.2,0.1-0.3,0.3l-0.8,1.3l-0.7-0.4l0.8-1.3c0.1-0.2,0.1-0.3,0.1-0.4c0-0.1-0.1-0.2-0.2-0.3c-0.1-0.1-0.2-0.1-0.4-0.1
			c-0.1,0-0.2,0.1-0.3,0.3l-0.8,1.3l-0.7-0.4l1.4-2.4l0.7,0.4l-0.2,0.3c0.1,0,0.1-0.1,0.2-0.1c0.1,0,0.1,0,0.2,0c0.1,0,0.2,0,0.2,0
			c0.1,0,0.2,0.1,0.2,0.1c0.2,0.1,0.3,0.2,0.3,0.3c0.1,0.1,0.1,0.3,0.1,0.4c0.2-0.1,0.3-0.1,0.5-0.1c0.2,0,0.3,0.1,0.5,0.2
			c0.3,0.1,0.4,0.3,0.5,0.6c0.1,0.2,0,0.5-0.2,0.8l-0.9,1.5L351,151.7z"/>
		
			<rect x="351.7" y="150.6" transform="matrix(-0.5061 0.8625 -0.8625 -0.5061 662.7949 -77.5155)" fill="#FFFFFF" width="3.7" height="0.8"/>
		<polygon fill="#FFFFFF" points="362.4,157.7 353.1,156.5 354.3,154.4 360.8,155.3 356.8,150.1 358.1,147.9 363.7,155.5 		"/>
	</g>
	<polygon fill="#EFEFEF" points="728.1,393 664.9,441.8 643.9,393 580.4,442.1 559.2,393 496.1,441.8 475.1,393 409.2,443.9 
		409.2,515.1 749.5,515.1 749.5,442.8 	"/>
	<rect x="596.2" y="456.1" fill="#DDDDDD" width="46.8" height="18.5"/>
	<rect x="666" y="456.1" fill="#DDDDDD" width="46.8" height="18.5"/>
	<rect x="358.5" y="461" fill="#EFEFEF" width="75.3" height="8.6"/>
	<path fill="#EFEFEF" d="M145.6,475.9H63.7c-2.4,0-4.3-1.9-4.3-4.3l0,0c0-2.4,1.9-4.3,4.3-4.3h81.8c2.4,0,4.3,1.9,4.3,4.3l0,0
		C149.9,473.9,148,475.9,145.6,475.9z"/>
	<path fill="#EFEFEF" d="M59.4,553.7v-82.1c0-2.4,1.9-4.3,4.3-4.3h0c2.4,0,4.3,1.9,4.3,4.3v82.1c0,2.4-1.9,4.3-4.3,4.3h0
		C61.4,558,59.4,556.1,59.4,553.7z"/>
	<rect x="730.5" y="473.3" fill="#EFEFEF" width="141.1" height="8.6"/>
	<path fill="#EFEFEF" d="M813.9,486.6h-25.7c-4.9,0-8.9-4-8.9-8.9v0c0-4.9,4-8.9,8.9-8.9h25.7c4.9,0,8.9,4,8.9,8.9v0
		C822.8,482.6,818.8,486.6,813.9,486.6z"/>
</g>
</svg>
