<?xml version="1.0" encoding="utf-8"?>
<!-- Generator: Adobe Illustrator 18.0.0, SVG Export Plug-In . SVG Version: 6.00 Build 0)  -->
<!DOCTYPE svg PUBLIC "-//W3C//DTD SVG 1.1//EN" "http://www.w3.org/Graphics/SVG/1.1/DTD/svg11.dtd">
<svg version="1.1" xmlns="http://www.w3.org/2000/svg" xmlns:xlink="http://www.w3.org/1999/xlink" x="0px" y="0px"
	 viewBox="0 0 1198.6 351.1" enable-background="new 0 0 1198.6 351.1" xml:space="preserve">
<g id="Layer_1">
	<rect x="145.9" y="334.4" fill="#DDDDDD" width="248.8" height="16.7"/>
	<path fill="#DDDDDD" d="M157.2,192.2v135.3h226.2V192.2H157.2z M284.4,279.4l-14.1-30.2l-8.8,19.1h12.9l2.1,5.2H259l-2.8,5.9h-7.7
		l19.1-39.1h5.3l19.1,39.1H284.4z"/>
	<g>
		<path fill="#DDDDDD" d="M110.6,329.8c-13.5,0-24.9,9-28.5,21.4H139C135.4,338.8,124.1,329.8,110.6,329.8z"/>
	</g>
	<g>
		<path fill="#DDDDDD" d="M350.9,148c0-14.5-6.8-26.2-15.1-26.2c-0.1,0-0.3,0-0.4,0c5,9.5,7.8,20.4,7.8,31.9c0,6.7-1,13.1-2.7,19.2
			C346.5,169.6,350.9,159.7,350.9,148z"/>
		<rect x="347.7" y="143.1" fill="#DDDDDD" width="6.4" height="8.6"/>
		<path fill="#DDDDDD" d="M189.7,148c0-14.5,6.8-26.2,15.1-26.2c0.1,0,0.3,0,0.4,0c-5,9.5-7.8,20.4-7.8,31.9c0,6.7,1,13.1,2.7,19.2
			C194.1,169.6,189.7,159.7,189.7,148z"/>
		<rect x="186.4" y="143.1" fill="#DDDDDD" width="6.4" height="8.6"/>
		<g>
			<path fill="#DDDDDD" d="M339.4,153.7c0-38.2-31-69.2-69.2-69.2c-38.2,0-69.2,31-69.2,69.2c0,11.4,2.8,22.1,7.6,31.6h123.2
				C336.6,175.8,339.4,165.1,339.4,153.7z"/>
		</g>
		<g>
			<path fill="#DDDDDD" d="M352.9,148.2c-4.8-42-40.4-73.7-82.7-73.7c-42.3,0-77.9,31.6-82.7,73.6l-2-0.2c5-43,41.4-75.4,84.7-75.4
				c43.4,0,79.8,32.4,84.7,75.5L352.9,148.2z"/>
		</g>
	</g>
	<path fill="#DDDDDD" d="M196.3,275.8H76.2c-17.9,0-32.4-15.4-32.4-34.3V0h11v241.4c0,12.9,9.6,23.3,21.4,23.3h120.2V275.8z"/>
	<path fill="#DDDDDD" d="M394.1,275.8h-46.6v-11h46.6c11.8,0,21.4-10.5,21.4-23.3V122.2h11v119.2C426.5,260.4,412,275.8,394.1,275.8
		z"/>
	<path fill="#DDDDDD" d="M512.1,148.1h-11v-86h-51.2c-12.9,0-23.3,9.6-23.3,21.4v46.6h-11V83.5c0-17.9,15.4-32.4,34.3-32.4h62.2
		V148.1z"/>
	<path fill="#DDDDDD" d="M129.3,286.8h-26.7c-9.1,0-16.6-7.4-16.6-16.6v0c0-9.1,7.4-16.6,16.6-16.6h26.7c9.1,0,16.6,7.4,16.6,16.6v0
		C145.9,279.4,138.5,286.8,129.3,286.8z"/>
	<g>
		<path fill="#DDDDDD" d="M49.3,127.8c-16.5,0-30-13.4-30-30c0-16.5,13.4-30,30-30s30,13.4,30,30C79.2,114.4,65.8,127.8,49.3,127.8z
			 M49.3,78.9c-10.5,0-19,8.5-19,19c0,10.5,8.5,19,19,19s19-8.5,19-19C68.2,87.4,59.7,78.9,49.3,78.9z"/>
		<rect x="22.7" y="92.4" fill="#DDDDDD" width="53.1" height="11"/>
	</g>
	<path fill="#DDDDDD" d="M404.5,122.2v-9.5c0-9.1,7.4-16.6,16.6-16.6h0c9.1,0,16.6,7.4,16.6,16.6v9.5c0,9.1-7.4,16.6-16.6,16.6h0
		C411.9,138.8,404.5,131.4,404.5,122.2z"/>
	<rect x="490.7" y="141.2" fill="#DDDDDD" width="31.9" height="13.7"/>
	<path fill="#DDDDDD" d="M533.9,161.9h-54.5c-2,0-3.6-1.6-3.6-3.6v-6.8c0-2,1.6-3.6,3.6-3.6h54.5c2,0,3.6,1.6,3.6,3.6v6.8
		C537.5,160.3,535.9,161.9,533.9,161.9z"/>
	<g>
		<g>
			<path fill="#CC0000" d="M532.6,245.1h-51.9c-3.2,0-5.8-2.6-5.8-5.8v-51.4c0-3.2,2.6-5.8,5.8-5.8h51.9c3.2,0,5.8,2.6,5.8,5.8v51.4
				C538.4,242.4,535.8,245.1,532.6,245.1z M480.6,185.7c-1.1,0-2.1,0.9-2.1,2.1v51.4c0,1.1,0.9,2.1,2.1,2.1h51.9
				c1.1,0,2.1-0.9,2.1-2.1v-51.4c0-1.1-0.9-2.1-2.1-2.1H480.6z"/>
			<path fill="#CC0000" d="M489.9,200.4h-6.6c-0.6,0-1,0.4-1,1v6.6c0,0.6,0.4,1,1,1h6.6c0.6,0,1-0.4,1-1v-6.6
				C490.9,200.8,490.4,200.4,489.9,200.4z"/>
			<path fill="#CC0000" d="M489.9,214.3h-6.6c-0.6,0-1,0.4-1,1v6.6c0,0.6,0.4,1,1,1h6.6c0.6,0,1-0.4,1-1v-6.6
				C490.9,214.7,490.4,214.3,489.9,214.3z"/>
			<path fill="#CC0000" d="M489.9,228.2h-6.6c-0.6,0-1,0.4-1,1v6.6c0,0.6,0.4,1,1,1h6.6c0.6,0,1-0.4,1-1v-6.6
				C490.9,228.7,490.4,228.2,489.9,228.2z"/>
			<rect x="476.7" y="194.1" fill="#CC0000" width="59.8" height="3.7"/>
			<rect x="493.8" y="196" fill="#CC0000" width="3.7" height="47.2"/>
			<path fill="#CC0000" d="M519.4,206.5h-17c-1,0-1.9-0.8-1.9-1.9s0.8-1.9,1.9-1.9h17c1,0,1.9,0.8,1.9,1.9S520.4,206.5,519.4,206.5z
				"/>
			<path fill="#CC0000" d="M530,222.5h-27.6c-1,0-1.9-0.8-1.9-1.9c0-1,0.8-1.9,1.9-1.9H530c1,0,1.9,0.8,1.9,1.9
				C531.9,221.7,531,222.5,530,222.5z"/>
			<path fill="#CC0000" d="M530,229.7h-27.6c-1,0-1.9-0.8-1.9-1.9c0-1,0.8-1.9,1.9-1.9H530c1,0,1.9,0.8,1.9,1.9
				C531.9,228.9,531,229.7,530,229.7z"/>
			<path fill="#CC0000" d="M530,236.8h-27.6c-1,0-1.9-0.8-1.9-1.9s0.8-1.9,1.9-1.9H530c1,0,1.9,0.8,1.9,1.9S531,236.8,530,236.8z"/>
			<circle fill="#CC0000" cx="524.1" cy="190" r="1.9"/>
			<circle fill="#CC0000" cx="528.8" cy="190" r="1.9"/>
			<circle fill="#CC0000" cx="519.4" cy="190" r="1.9"/>
		</g>
		<g>
			<path fill="#CC0000" d="M613.4,202.5c-0.5-0.5-1.1-0.9-1.8-1.2c-0.7-0.3-1.5-0.4-2.3-0.4c-0.8,0-1.6,0.1-2.3,0.4
				c-0.7,0.3-1.3,0.7-1.8,1.2c-0.5,0.5-0.9,1.1-1.2,1.8s-0.4,1.4-0.4,2.2v0c0,0.8,0.1,1.5,0.4,2.2c0.3,0.7,0.7,1.3,1.2,1.8
				c0.5,0.5,1.1,0.9,1.8,1.2c0.7,0.3,1.5,0.4,2.3,0.4c0.8,0,1.6-0.1,2.3-0.4c0.7-0.3,1.3-0.7,1.8-1.2c0.5-0.5,0.9-1.1,1.2-1.8
				c0.3-0.7,0.4-1.4,0.4-2.2v0c0-0.8-0.1-1.5-0.4-2.2C614.3,203.6,613.9,203,613.4,202.5z M612.1,206.5c0,0.4-0.1,0.8-0.2,1.1
				c-0.1,0.4-0.3,0.7-0.5,0.9c-0.2,0.3-0.5,0.5-0.9,0.6c-0.3,0.2-0.7,0.2-1.2,0.2c-0.4,0-0.8-0.1-1.1-0.2c-0.3-0.2-0.6-0.4-0.9-0.6
				c-0.3-0.3-0.4-0.6-0.6-0.9c-0.1-0.4-0.2-0.7-0.2-1.1v0c0-0.4,0.1-0.8,0.2-1.1c0.1-0.4,0.3-0.7,0.5-0.9c0.2-0.3,0.5-0.5,0.9-0.6
				c0.3-0.2,0.7-0.2,1.2-0.2c0.4,0,0.8,0.1,1.1,0.2c0.3,0.2,0.6,0.4,0.9,0.6c0.3,0.3,0.4,0.6,0.6,0.9
				C612,205.7,612.1,206.1,612.1,206.5L612.1,206.5z"/>
			<path fill="#CC0000" d="M629.9,200.9c-0.7,0-1.4,0.1-1.9,0.4c-0.6,0.3-1.1,0.7-1.6,1.3c-0.3-0.5-0.7-1-1.2-1.3
				c-0.5-0.3-1.1-0.4-1.8-0.4c-0.4,0-0.7,0-1,0.1c-0.3,0.1-0.6,0.2-0.8,0.4c-0.3,0.2-0.5,0.3-0.7,0.5c-0.2,0.2-0.4,0.4-0.6,0.6v-1.5
				h-3v10.7h3v-6c0-0.7,0.2-1.3,0.5-1.6c0.3-0.4,0.8-0.5,1.3-0.5c0.6,0,1,0.2,1.3,0.5c0.3,0.4,0.5,0.9,0.5,1.6v6h3v-6
				c0-0.7,0.2-1.3,0.5-1.6c0.3-0.4,0.8-0.5,1.3-0.5c0.6,0,1,0.2,1.3,0.5c0.3,0.4,0.5,0.9,0.5,1.6v6h3v-6.9c0-1.3-0.3-2.3-1-2.9
				C631.9,201.2,631,200.9,629.9,200.9z"/>
			<path fill="#CC0000" d="M599.5,209.1c-0.4,0.2-0.8,0.3-1.3,0.3c-0.4,0-0.8-0.1-1.1-0.2c-0.3-0.2-0.6-0.4-0.9-0.6
				c-0.2-0.3-0.4-0.6-0.5-0.9c-0.1-0.4-0.2-0.7-0.2-1.2v0c0-0.4,0.1-0.8,0.2-1.1c0.1-0.4,0.3-0.7,0.5-0.9c0.2-0.3,0.5-0.5,0.8-0.6
				c0.3-0.2,0.7-0.2,1-0.2c0.5,0,1,0.1,1.4,0.3c0.4,0.2,0.7,0.5,1.1,0.9l1.9-2c-0.5-0.6-1.1-1-1.8-1.3c-0.7-0.3-1.5-0.5-2.5-0.5
				c-0.8,0-1.6,0.1-2.2,0.4c-0.7,0.3-1.3,0.7-1.8,1.2c-0.5,0.5-0.9,1.1-1.2,1.8c-0.3,0.7-0.4,1.4-0.4,2.1v0c0,0.8,0.1,1.5,0.4,2.1
				c0.3,0.7,0.7,1.3,1.2,1.8c0.5,0.5,1.1,0.9,1.8,1.2c0.7,0.3,1.4,0.4,2.2,0.4c1.1,0,1.9-0.2,2.6-0.5c0.7-0.4,1.3-0.8,1.8-1.4
				l-1.8-1.8C600.2,208.6,599.8,208.9,599.5,209.1z"/>
			<rect x="587.5" y="208.6" fill="#CC0000" width="3.2" height="3.2"/>
			<path fill="#CC0000" d="M637.3,232.5h-51.9c-3.2,0-5.8-2.6-5.8-5.8V189c0-3.2,2.6-5.8,5.8-5.8h51.9c3.2,0,5.8,2.6,5.8,5.8v37.7
				C643.1,229.9,640.5,232.5,637.3,232.5z M585.3,186.9c-1.1,0-2.1,0.9-2.1,2.1v37.7c0,1.1,0.9,2.1,2.1,2.1h51.9
				c1.1,0,2.1-0.9,2.1-2.1V189c0-1.1-0.9-2.1-2.1-2.1H585.3z"/>
			<path fill="#CC0000" d="M637.3,246.2h-51.9c-3.2,0-5.8-2.6-5.8-5.8c0-3.2,2.6-5.8,5.8-5.8h51.9c3.2,0,5.8,2.6,5.8,5.8
				C643.1,243.6,640.5,246.2,637.3,246.2z M585.3,238.3c-1.1,0-2.1,0.9-2.1,2.1c0,1.1,0.9,2.1,2.1,2.1h51.9c1.1,0,2.1-0.9,2.1-2.1
				c0-1.1-0.9-2.1-2.1-2.1H585.3z"/>
		</g>
		<g id="Mail_x5F_1_17_">
			<g>
				<path fill="#CC0000" d="M745.6,183.7c-1.1-1.1-2.6-1.7-4.2-1.7h-51.3c-1.6,0-3.1,0.6-4.2,1.7c-1.1,1.1-1.7,2.6-1.7,4.2v51.3
					c0,0.4,0,0.8,0.1,1.2c0,0.1,0,0.1,0.1,0.2c0.1,0.3,0.2,0.6,0.3,0.9c0,0,0,0.1,0,0.1c0.3,0.7,0.7,1.3,1.2,1.8
					c0.3,0.3,0.5,0.5,0.8,0.7c0,0,0,0,0.1,0c0.3,0.2,0.6,0.3,0.9,0.5c0,0,0.1,0.1,0.1,0.1c0.3,0.1,0.6,0.2,0.9,0.3
					c0.1,0,0.2,0.1,0.2,0.1c0.4,0.1,0.8,0.1,1.2,0.1h51.3c0.4,0,0.8,0,1.2-0.1c0.1,0,0.2-0.1,0.2-0.1c0.3-0.1,0.6-0.2,0.9-0.3
					c0.1,0,0.1-0.1,0.1-0.1c0.3-0.1,0.6-0.3,0.9-0.5c0,0,0,0,0.1,0c0.3-0.2,0.6-0.4,0.8-0.7c0.5-0.5,0.9-1.1,1.2-1.8
					c0,0,0-0.1,0-0.1c0.1-0.3,0.2-0.6,0.3-0.9c0-0.1,0-0.1,0.1-0.2c0.1-0.4,0.1-0.8,0.1-1.2v-51.3
					C747.3,186.3,746.7,184.8,745.6,183.7z M688.1,194.3l19.2,19.2l-19.2,19.2V194.3z M743.2,239.9c-0.1,0.2-0.2,0.4-0.4,0.6
					c-0.2,0.2-0.4,0.3-0.6,0.4c-0.2,0.1-0.5,0.2-0.8,0.2h-51.3c-0.3,0-0.5-0.1-0.8-0.2c-0.2-0.1-0.4-0.2-0.6-0.4
					c-0.2-0.2-0.3-0.4-0.4-0.6c-0.1-0.2-0.2-0.5-0.2-0.8c0-0.5,0.2-1,0.6-1.4l21.5-21.5l1.4,1.4c1.1,1.1,2.6,1.7,4.2,1.7
					c1.6,0,3.1-0.6,4.2-1.7l1.4-1.4l21.5,21.5c0.4,0.4,0.6,0.9,0.6,1.4C743.4,239.4,743.3,239.7,743.2,239.9z M743.4,232.8
					l-19.2-19.2l19.2-19.2V232.8z M742.8,189.3l-25.6,25.6c-0.7,0.7-2,0.7-2.8,0l-25.6-25.6c-0.4-0.4-0.6-0.9-0.6-1.4
					c0-0.5,0.2-1,0.6-1.4c0.4-0.4,0.9-0.6,1.4-0.6h51.3c0.5,0,1,0.2,1.4,0.6c0.4,0.4,0.6,0.9,0.6,1.4
					C743.4,188.4,743.2,188.9,742.8,189.3z"/>
			</g>
		</g>
		<g>
			<path fill="#CC0000" d="M790.3,249.5c-0.3,0-0.7-0.1-1-0.3c-0.6-0.3-0.9-0.9-0.9-1.6v-54.3c0-3.2,2.6-5.7,5.7-5.7h50.5
				c3.2,0,5.7,2.6,5.7,5.7v40c0,3.2-2.6,5.7-5.7,5.7h-34.4l-19.2,10.2C790.9,249.4,790.6,249.5,790.3,249.5z M794.2,191.3
				c-1.1,0-2.1,0.9-2.1,2.1v51.2l16.9-8.9c0.3-0.1,0.6-0.2,0.9-0.2h34.9c1.1,0,2.1-0.9,2.1-2.1v-40c0-1.1-0.9-2.1-2.1-2.1H794.2z"/>
			<g>
				<path fill="#CC0000" d="M822.4,217.1h-6c-0.6,0-1-0.4-1-1v-6c0-0.6,0.4-1,1-1h6c0.6,0,1,0.4,1,1v6
					C823.4,216.6,823,217.1,822.4,217.1z"/>
				<path fill="#CC0000" d="M835.8,217.1h-6c-0.6,0-1-0.4-1-1v-6c0-0.6,0.4-1,1-1h6c0.6,0,1,0.4,1,1v6
					C836.8,216.6,836.4,217.1,835.8,217.1z"/>
				<path fill="#CC0000" d="M809.1,217.1h-6c-0.6,0-1-0.4-1-1v-6c0-0.6,0.4-1,1-1h6c0.6,0,1,0.4,1,1v6
					C810.1,216.6,809.6,217.1,809.1,217.1z"/>
			</g>
		</g>
		<g>
			<path fill="#CC0000" d="M950.4,245.5h-51.5c-3.2,0-5.8-2.6-5.8-5.8v-51c0-3.2,2.6-5.8,5.8-5.8h51.5c3.2,0,5.8,2.6,5.8,5.8v51
				C956.2,242.9,953.6,245.5,950.4,245.5z M898.9,186.6c-1.1,0-2.1,0.9-2.1,2.1v51c0,1.1,0.9,2.1,2.1,2.1h51.5
				c1.1,0,2.1-0.9,2.1-2.1v-51c0-1.1-0.9-2.1-2.1-2.1H898.9z"/>
			<rect x="895" y="192.3" fill="#CC0000" width="59.3" height="3.7"/>
			<rect x="895" y="226.5" fill="#CC0000" width="59.3" height="3.7"/>
			<circle fill="#CC0000" cx="924.6" cy="236.5" r="4"/>
		</g>
	</g>
	<path fill="#DDDDDD" d="M944.5,335.9h-10.3v-5.1h10.3V335.9z M924.1,335.9H914v-5.1h10.1V335.9z M903.9,335.9h-10.1v-5.1h10.1
		V335.9z M883.6,335.9h-10.1v-5.1h10.1V335.9z M863.4,335.9h-10.1v-5.1h10.1V335.9z M843.2,335.9H833v-5.1h10.1V335.9z M822.9,335.9
		h-10.1v-5.1h10.1V335.9z M802.7,335.9h-10.1v-5.1h10.1V335.9z M782.4,335.9h-10.1v-5.1h10.1V335.9z M660.5,335.9h-10.1v-5.1h10.1
		V335.9z M640.2,335.9h-10.1v-5.1h10.1V335.9z M620,335.9h-10.1v-5.1H620V335.9z M599.7,335.9h-10.1v-5.1h10.1V335.9z M579.5,335.9
		h-10.1v-5.1h10.1V335.9z M559.2,335.9h-10.1v-5.1h10.1V335.9z M539,335.9h-10.1v-5.1H539V335.9z M518.7,335.9h-10.1v-5.1h10.1
		V335.9z M498.5,335.9h-10.1v-5.1h10.1V335.9z M477.7,334.8c-3.5-0.9-6.9-2.3-10-4.3l2.7-4.3c2.7,1.7,5.5,2.9,8.6,3.7L477.7,334.8z
		 M955.2,334.3l-1.5-4.8c3-0.9,5.8-2.3,8.3-4.1l2.9,4.1C962,331.5,958.7,333.1,955.2,334.3z M459.5,323.5c-2.4-2.8-4.4-5.8-5.8-9.1
		l4.6-2c1.3,2.9,2.9,5.5,5,7.9L459.5,323.5z M972.8,322l-4-3.1c1.9-2.5,3.5-5.2,4.5-8.1l4.7,1.8C976.8,315.9,975,319.1,972.8,322z
		 M450.9,303.9c-0.1-1.3-0.2-2.6-0.2-3.9v-4.6c0-0.7,0-1.3,0.1-2l5,0.3c0,0.6,0,1.1,0,1.7v4.6c0,1.1,0.1,2.3,0.2,3.4L450.9,303.9z
		 M980.3,301.9l-5-0.3c0-0.5,0-1.1,0-1.6v-4.6c0-1.2-0.1-2.3-0.2-3.5l5-0.6c0.1,1.3,0.2,2.7,0.2,4v4.6
		C980.4,300.6,980.3,301.2,980.3,301.9z M457.7,284.5l-4.7-1.8c1.3-3.4,3.1-6.6,5.3-9.5l4,3.1C460.3,278.9,458.8,281.6,457.7,284.5z
		 M972.7,282.9c-1.3-2.8-3-5.5-5-7.9l3.8-3.3c2.4,2.7,4.4,5.8,5.8,9.1L972.7,282.9z M469,270l-2.9-4.1c3-2.1,6.3-3.7,9.7-4.8
		l1.5,4.8C474.4,266.8,471.6,268.2,469,270z M960.5,269c-2.7-1.6-5.6-2.9-8.6-3.6l1.2-4.9c3.5,0.9,6.9,2.3,10,4.2L960.5,269z
		 M942.6,264.4h-10.1v-5.1h10.1V264.4z M922.3,264.4h-10.1v-5.1h10.1V264.4z M902.1,264.4h-10.1v-5.1h10.1V264.4z M881.8,264.4
		h-10.1v-5.1h10.1V264.4z M861.6,264.4h-10.1v-5.1h10.1V264.4z M841.3,264.4h-10.1v-5.1h10.1V264.4z M821.1,264.4H811v-5.1h10.1
		V264.4z M800.8,264.4h-10.1v-5.1h10.1V264.4z M780.6,264.4h-10.1v-5.1h10.1V264.4z M658.6,264.4h-10.1v-5.1h10.1V264.4z
		 M638.4,264.4h-10.1v-5.1h10.1V264.4z M618.1,264.4H608v-5.1h10.1V264.4z M597.9,264.4h-10.1v-5.1h10.1V264.4z M577.6,264.4h-10.1
		v-5.1h10.1V264.4z M557.4,264.4h-10.1v-5.1h10.1V264.4z M759.9,264.4h-10.1v-5.1h10.1V264.4z M739.6,264.4h-10.1v-5.1h10.1V264.4z
		 M719.4,264.4h-10.1v-5.1h10.1V264.4z M699.1,264.4H689v-5.1h10.1V264.4z M678.9,264.4h-10.1v-5.1h10.1V264.4z M782.5,336h-10.1
		v-5.1h10.1V336z M761.7,336h-10.1v-5.1h10.1V336z M741.5,336h-10.1v-5.1h10.1V336z M721.3,336h-10.1v-5.1h10.1V336z M701,336h-10.1
		v-5.1H701V336z M680.8,336h-10.1v-5.1h10.1V336z M537.2,264.4H527v-5.1h10.1V264.4z M516.9,264.4h-10.1v-5.1h10.1V264.4z
		 M496.7,264.4h-10.1l-0.1-5.1h10.1V264.4z"/>
	<g>
		<path fill="#DDDDDD" d="M491.3,277.5c-11.1,0-20.2,9-20.2,20.2s9,20.2,20.2,20.2c11.1,0,20.2-9,20.2-20.2S502.4,277.5,491.3,277.5
			z M497.9,301.9c0.8,0.8,0.8,2.1,0,2.9c-0.4,0.4-0.9,0.6-1.5,0.6s-1.1-0.2-1.5-0.6l-3.7-3.7l-3.7,3.7c-0.4,0.4-0.9,0.6-1.5,0.6
			c-0.5,0-1.1-0.2-1.5-0.6c-0.8-0.8-0.8-2.1,0-2.9l3.7-3.7l-3.7-3.7c-0.8-0.8-0.8-2.1,0-2.9c0.8-0.8,2.1-0.8,2.9,0l3.7,3.7l3.7-3.7
			c0.8-0.8,2.1-0.8,2.9,0c0.8,0.8,0.8,2.1,0,2.9l-3.7,3.7L497.9,301.9z"/>
		<path fill="#DDDDDD" d="M940.1,277.5c-11.1,0-20.2,9-20.2,20.2s9,20.2,20.2,20.2c11.1,0,20.2-9,20.2-20.2S951.2,277.5,940.1,277.5
			z M946.8,301.9c0.8,0.8,0.8,2.1,0,2.9c-0.4,0.4-0.9,0.6-1.5,0.6c-0.5,0-1.1-0.2-1.5-0.6l-3.7-3.7l-3.7,3.7
			c-0.4,0.4-0.9,0.6-1.5,0.6c-0.5,0-1.1-0.2-1.5-0.6c-0.8-0.8-0.8-2.1,0-2.9l3.7-3.7l-3.7-3.7c-0.8-0.8-0.8-2.1,0-2.9
			c0.8-0.8,2.1-0.8,2.9,0l3.7,3.7l3.7-3.7c0.8-0.8,2.1-0.8,2.9,0c0.8,0.8,0.8,2.1,0,2.9l-3.7,3.7L946.8,301.9z"/>
		<path fill="#DDDDDD" d="M940.1,268.9h-158h-13.8H662.7H651H490.9c-15.8,0-28.7,12.9-28.7,28.7c0,15.8,12.9,28.7,28.7,28.7H651
			h11.7h105.6h13.8h158c15.8,0,28.7-12.9,28.7-28.7C968.8,281.8,955.9,268.9,940.1,268.9z M491.3,322c-13.4,0-24.3-10.9-24.3-24.3
			c0-13.4,10.9-24.3,24.3-24.3c13.4,0,24.3,10.9,24.3,24.3C515.6,311.1,504.7,322,491.3,322z M940,322c-13.4,0-24.3-10.9-24.3-24.3
			c0-13.4,10.9-24.3,24.3-24.3c13.4,0,24.3,10.9,24.3,24.3C964.3,311.1,953.4,322,940,322z"/>
	</g>
</g>
<g id="Meet_US" display="none">
</g>
<g id="Home">
</g>
</svg>
