<?xml version="1.0" encoding="utf-8"?>
<!-- Generator: Adobe Illustrator 18.0.0, SVG Export Plug-In . SVG Version: 6.00 Build 0)  -->
<!DOCTYPE svg PUBLIC "-//W3C//DTD SVG 1.1//EN" "http://www.w3.org/Graphics/SVG/1.1/DTD/svg11.dtd">
<svg version="1.1" xmlns="http://www.w3.org/2000/svg" xmlns:xlink="http://www.w3.org/1999/xlink" x="0px" y="0px"
	 viewBox="0 0 480 450" enable-background="new 0 0 480 450" xml:space="preserve">
<g id="Layer_1">
</g>
<g id="Meet_US" display="none">
</g>
<g id="Home">
	<g>
		<rect x="143.6" y="257.1" fill="#DDDDDD" width="191.3" height="12.9"/>
		<path fill="#DDDDDD" d="M152.3,147.7v104h173.9v-104H152.3z M250.1,214.8l-10.8-23.2l-6.8,14.7h9.9l1.6,4h-13.4l-2.1,4.6h-5.9
			l14.7-30.1h4.1l14.7,30.1H250.1z"/>
		<g>
			<path fill="#DDDDDD" d="M116.5,253.5c-10.4,0-19.1,6.9-21.9,16.4h43.8C135.6,260.4,126.9,253.5,116.5,253.5z"/>
		</g>
		<g>
			<path fill="#DDDDDD" d="M301.3,113.8c0-11.1-5.2-20.1-11.6-20.1c-0.1,0-0.2,0-0.3,0c3.8,7.3,6,15.7,6,24.5
				c0,5.1-0.7,10.1-2.1,14.8C297.9,130.3,301.3,122.7,301.3,113.8z"/>
			<rect x="298.8" y="110" fill="#DDDDDD" width="4.9" height="6.6"/>
			<path fill="#DDDDDD" d="M177.3,113.8c0-11.1,5.2-20.1,11.6-20.1c0.1,0,0.2,0,0.3,0c-3.8,7.3-6,15.7-6,24.5
				c0,5.1,0.7,10.1,2.1,14.8C180.7,130.3,177.3,122.7,177.3,113.8z"/>
			<rect x="174.8" y="110" fill="#DDDDDD" width="4.9" height="6.6"/>
			<g>
				<path fill="#DDDDDD" d="M292.4,118.2c0-29.4-23.8-53.2-53.2-53.2c-29.4,0-53.2,23.8-53.2,53.2c0,8.8,2.1,17,5.9,24.3h94.7
					C290.3,135.2,292.4,126.9,292.4,118.2z"/>
			</g>
			<g>
				<path fill="#DDDDDD" d="M302.8,113.9c-3.7-32.3-31-56.6-63.6-56.6c-32.5,0-59.9,24.3-63.6,56.6l-1.5-0.2
					c3.8-33,31.8-57.9,65.1-57.9c33.3,0,61.3,24.9,65.1,58L302.8,113.9z"/>
			</g>
		</g>
		<path fill="#DDDDDD" d="M182.4,212H90c-13.7,0-24.9-11.8-24.9-26.4V0h8.5v185.6c0,9.9,7.4,17.9,16.5,17.9h92.4V212z"/>
		<path fill="#DDDDDD" d="M334.5,212h-35.9v-8.5h35.9c9.1,0,16.5-8,16.5-17.9V93.9h8.5v91.7C359.4,200.2,348.2,212,334.5,212z"/>
		<path fill="#DDDDDD" d="M408.4,298.9h-8.5V47.7h-22.6c-9.9,0-17.9,7.4-17.9,16.5V100h-8.5V64.2c0-13.7,11.8-24.9,26.4-24.9h31.1
			V298.9z"/>
		<path fill="#DDDDDD" d="M133.5,220.5h-25.7c-5.6,0-10.2-4.5-10.2-10.2v-5.1c0-5.6,4.5-10.2,10.2-10.2h25.7
			c5.6,0,10.2,4.5,10.2,10.2v5.1C143.6,215.9,139.1,220.5,133.5,220.5z"/>
		<g>
			<path fill="#DDDDDD" d="M69.4,98.3c-12.7,0-23-10.3-23-23c0-12.7,10.3-23,23-23c12.7,0,23,10.3,23,23
				C92.4,87.9,82.1,98.3,69.4,98.3z M69.4,60.6c-8,0-14.6,6.5-14.6,14.6c0,8,6.5,14.6,14.6,14.6c8,0,14.6-6.5,14.6-14.6
				C83.9,67.2,77.4,60.6,69.4,60.6z"/>
			<rect x="49" y="71" fill="#DDDDDD" width="40.8" height="8.5"/>
		</g>
		<path fill="#DDDDDD" d="M342.4,96.5V84.1c0-5.6,4.5-10.2,10.2-10.2h5.1c5.6,0,10.2,4.5,10.2,10.2v12.5c0,5.6-4.5,10.2-10.2,10.2
			h-5.1C347,106.7,342.4,102.1,342.4,96.5z"/>
		<g>
			<rect x="391.9" y="293.8" fill="#DDDDDD" width="24.5" height="10.5"/>
			<path fill="#DDDDDD" d="M424.3,309.7H384c-2,0-3.6-1.6-3.6-3.6v-3.6c0-2,1.6-3.6,3.6-3.6h40.3c2,0,3.6,1.6,3.6,3.6v3.6
				C427.9,308.1,426.3,309.7,424.3,309.7z"/>
		</g>
		<g>
			<g>
				<g>
					<path fill="#CC0000" d="M103.9,371.2H65.3c-2.4,0-4.3-1.9-4.3-4.3v-38.3c0-2.4,1.9-4.3,4.3-4.3h38.6c2.4,0,4.3,1.9,4.3,4.3
						v38.3C108.3,369.3,106.3,371.2,103.9,371.2z M65.3,327.1c-0.9,0-1.5,0.7-1.5,1.5v38.3c0,0.9,0.7,1.5,1.5,1.5h38.6
						c0.9,0,1.5-0.7,1.5-1.5v-38.3c0-0.9-0.7-1.5-1.5-1.5H65.3z"/>
					<path fill="#CC0000" d="M71.9,338h-4.4c-0.6,0-1,0.4-1,1v4.4c0,0.6,0.4,1,1,1h4.4c0.6,0,1-0.4,1-1V339
						C72.9,338.4,72.5,338,71.9,338z"/>
					<path fill="#CC0000" d="M71.9,348.4h-4.4c-0.6,0-1,0.4-1,1v4.4c0,0.6,0.4,1,1,1h4.4c0.6,0,1-0.4,1-1v-4.4
						C72.9,348.8,72.5,348.4,71.9,348.4z"/>
					<path fill="#CC0000" d="M71.9,358.7h-4.4c-0.6,0-1,0.4-1,1v4.4c0,0.6,0.4,1,1,1h4.4c0.6,0,1-0.4,1-1v-4.4
						C72.9,359.2,72.5,358.7,71.9,358.7z"/>
					<rect x="62.4" y="333.3" fill="#CC0000" width="44.5" height="2.8"/>
					<rect x="75.1" y="334.7" fill="#CC0000" width="2.8" height="35.1"/>
					<path fill="#CC0000" d="M94.1,342.5H81.5c-0.8,0-1.4-0.6-1.4-1.4c0-0.8,0.6-1.4,1.4-1.4h12.6c0.8,0,1.4,0.6,1.4,1.4
						C95.5,341.9,94.9,342.5,94.1,342.5z"/>
					<path fill="#CC0000" d="M102,354.5H81.5c-0.8,0-1.4-0.6-1.4-1.4c0-0.8,0.6-1.4,1.4-1.4H102c0.8,0,1.4,0.6,1.4,1.4
						C103.4,353.9,102.8,354.5,102,354.5z"/>
					<path fill="#CC0000" d="M102,359.8H81.5c-0.8,0-1.4-0.6-1.4-1.4c0-0.8,0.6-1.4,1.4-1.4H102c0.8,0,1.4,0.6,1.4,1.4
						C103.4,359.2,102.8,359.8,102,359.8z"/>
					<path fill="#CC0000" d="M102,365.1H81.5c-0.8,0-1.4-0.6-1.4-1.4c0-0.8,0.6-1.4,1.4-1.4H102c0.8,0,1.4,0.6,1.4,1.4
						C103.4,364.5,102.8,365.1,102,365.1z"/>
					<circle fill="#CC0000" cx="97.6" cy="330.3" r="1.4"/>
					<circle fill="#CC0000" cx="101.1" cy="330.3" r="1.4"/>
					<circle fill="#CC0000" cx="94.1" cy="330.3" r="1.4"/>
				</g>
				<g>
					<path fill="#CC0000" d="M164.1,339.6c-0.4-0.4-0.8-0.7-1.4-0.9c-0.5-0.2-1.1-0.3-1.7-0.3c-0.6,0-1.2,0.1-1.7,0.3
						c-0.5,0.2-1,0.5-1.4,0.9c-0.4,0.4-0.7,0.8-0.9,1.3c-0.2,0.5-0.3,1-0.3,1.6v0c0,0.6,0.1,1.1,0.3,1.6c0.2,0.5,0.5,0.9,0.9,1.3
						c0.4,0.4,0.8,0.7,1.4,0.9c0.5,0.2,1.1,0.3,1.7,0.3c0.6,0,1.2-0.1,1.7-0.3c0.5-0.2,1-0.5,1.4-0.9c0.4-0.4,0.7-0.8,0.9-1.3
						c0.2-0.5,0.3-1,0.3-1.6v0c0-0.6-0.1-1.1-0.3-1.6C164.7,340.4,164.4,340,164.1,339.6z M163.1,342.6c0,0.3,0,0.6-0.1,0.8
						c-0.1,0.3-0.2,0.5-0.4,0.7c-0.2,0.2-0.4,0.4-0.6,0.5c-0.3,0.1-0.5,0.2-0.9,0.2c-0.3,0-0.6-0.1-0.8-0.2
						c-0.3-0.1-0.5-0.3-0.7-0.5c-0.2-0.2-0.3-0.4-0.4-0.7c-0.1-0.3-0.1-0.5-0.1-0.8v0c0-0.3,0-0.6,0.1-0.8c0.1-0.3,0.2-0.5,0.4-0.7
						c0.2-0.2,0.4-0.4,0.6-0.5c0.3-0.1,0.5-0.2,0.9-0.2c0.3,0,0.6,0.1,0.9,0.2c0.3,0.1,0.5,0.3,0.7,0.5c0.2,0.2,0.3,0.4,0.4,0.7
						C163,341.9,163.1,342.2,163.1,342.6L163.1,342.6z"/>
					<path fill="#CC0000" d="M176.3,338.4c-0.5,0-1,0.1-1.5,0.3c-0.4,0.2-0.8,0.5-1.2,0.9c-0.2-0.4-0.5-0.7-0.9-0.9
						c-0.4-0.2-0.8-0.3-1.4-0.3c-0.3,0-0.5,0-0.8,0.1c-0.2,0.1-0.4,0.2-0.6,0.3c-0.2,0.1-0.4,0.3-0.5,0.4c-0.2,0.2-0.3,0.3-0.4,0.5
						v-1.1h-2.3v7.9h2.3V342c0-0.5,0.1-0.9,0.4-1.2c0.2-0.3,0.6-0.4,1-0.4s0.8,0.1,1,0.4c0.2,0.3,0.3,0.7,0.3,1.2v4.4h2.3V342
						c0-0.5,0.1-0.9,0.4-1.2c0.2-0.3,0.6-0.4,1-0.4c0.4,0,0.8,0.1,1,0.4c0.2,0.3,0.3,0.7,0.3,1.2v4.4h2.2v-5.2c0-1-0.2-1.7-0.7-2.2
						C177.8,338.6,177.2,338.4,176.3,338.4z"/>
					<path fill="#CC0000" d="M153.7,344.5c-0.3,0.2-0.6,0.2-1,0.2c-0.3,0-0.6-0.1-0.8-0.2c-0.2-0.1-0.5-0.3-0.6-0.5
						c-0.2-0.2-0.3-0.4-0.4-0.7c-0.1-0.3-0.1-0.6-0.1-0.9v0c0-0.3,0-0.6,0.1-0.8c0.1-0.3,0.2-0.5,0.4-0.7c0.2-0.2,0.4-0.4,0.6-0.5
						c0.2-0.1,0.5-0.2,0.8-0.2c0.4,0,0.7,0.1,1,0.2c0.3,0.2,0.5,0.4,0.8,0.6l1.4-1.5c-0.4-0.4-0.8-0.7-1.3-1
						c-0.5-0.2-1.1-0.4-1.9-0.4c-0.6,0-1.2,0.1-1.7,0.3c-0.5,0.2-1,0.5-1.3,0.9c-0.4,0.4-0.7,0.8-0.9,1.3c-0.2,0.5-0.3,1-0.3,1.6v0
						c0,0.6,0.1,1.1,0.3,1.6c0.2,0.5,0.5,0.9,0.9,1.3c0.4,0.4,0.8,0.7,1.3,0.9c0.5,0.2,1.1,0.3,1.7,0.3c0.8,0,1.4-0.1,1.9-0.4
						c0.5-0.3,0.9-0.6,1.3-1l-1.3-1.3C154.2,344.1,154,344.3,153.7,344.5z"/>
					<rect x="144.8" y="344.1" fill="#CC0000" width="2.4" height="2.4"/>
					<path fill="#CC0000" d="M181.8,361.9h-38.6c-2.4,0-4.3-1.9-4.3-4.3v-28.1c0-2.4,1.9-4.3,4.3-4.3h38.6c2.4,0,4.3,1.9,4.3,4.3
						v28.1C186.1,360,184.2,361.9,181.8,361.9z M143.2,328c-0.9,0-1.5,0.7-1.5,1.5v28.1c0,0.9,0.7,1.5,1.5,1.5h38.6
						c0.9,0,1.5-0.7,1.5-1.5v-28.1c0-0.9-0.7-1.5-1.5-1.5H143.2z"/>
					<path fill="#CC0000" d="M181.8,372.1h-38.6c-2.4,0-4.3-1.9-4.3-4.3c0-2.4,1.9-4.3,4.3-4.3h38.6c2.4,0,4.3,1.9,4.3,4.3
						C186.1,370.1,184.2,372.1,181.8,372.1z M143.2,366.2c-0.9,0-1.5,0.7-1.5,1.5c0,0.9,0.7,1.5,1.5,1.5h38.6c0.9,0,1.5-0.7,1.5-1.5
						c0-0.9-0.7-1.5-1.5-1.5H143.2z"/>
				</g>
				<g id="Mail_x5F_1_5_">
					<g>
						<path fill="#CC0000" d="M262.4,325.6c-0.8-0.8-1.9-1.3-3.1-1.3h-38.1c-1.2,0-2.3,0.5-3.1,1.3c-0.8,0.8-1.3,1.9-1.3,3.1v38.1
							c0,0.3,0,0.6,0.1,0.9c0,0.1,0,0.1,0,0.2c0.1,0.2,0.1,0.5,0.2,0.7c0,0,0,0,0,0.1c0.2,0.5,0.5,0.9,0.9,1.3
							c0.2,0.2,0.4,0.4,0.6,0.5c0,0,0,0,0,0c0.2,0.1,0.4,0.2,0.6,0.3c0,0,0.1,0,0.1,0.1c0.2,0.1,0.4,0.1,0.7,0.2
							c0.1,0,0.1,0,0.2,0.1c0.3,0.1,0.6,0.1,0.9,0.1h38.1c0.3,0,0.6,0,0.9-0.1c0.1,0,0.1,0,0.2-0.1c0.2-0.1,0.4-0.1,0.7-0.2
							c0,0,0.1,0,0.1-0.1c0.2-0.1,0.4-0.2,0.6-0.3c0,0,0,0,0,0c0.2-0.1,0.4-0.3,0.6-0.5c0.4-0.4,0.7-0.8,0.9-1.3c0,0,0,0,0-0.1
							c0.1-0.2,0.2-0.4,0.2-0.7c0-0.1,0-0.1,0-0.2c0.1-0.3,0.1-0.6,0.1-0.9v-38.1C263.7,327.5,263.2,326.4,262.4,325.6z
							 M219.7,333.5l14.3,14.3l-14.3,14.3V333.5z M260.6,367.4c-0.1,0.2-0.2,0.3-0.3,0.5c-0.1,0.1-0.3,0.2-0.5,0.3s-0.4,0.1-0.6,0.1
							h-38.1c-0.2,0-0.4,0-0.6-0.1c-0.2-0.1-0.3-0.2-0.5-0.3c-0.1-0.1-0.2-0.3-0.3-0.5c-0.1-0.2-0.1-0.4-0.1-0.6
							c0-0.4,0.2-0.8,0.4-1l16-16l1,1c0.8,0.8,1.9,1.3,3.1,1.3c1.2,0,2.3-0.5,3.1-1.3l1-1l16,16c0.3,0.3,0.4,0.6,0.4,1
							C260.7,367.1,260.7,367.2,260.6,367.4z M260.7,362.1l-14.3-14.3l14.3-14.3V362.1z M260.3,329.7l-19.1,19.1
							c-0.6,0.6-1.5,0.6-2.1,0l-19.1-19.1c-0.3-0.3-0.4-0.6-0.4-1c0-0.4,0.2-0.8,0.4-1c0.3-0.3,0.6-0.4,1-0.4h38.1
							c0.4,0,0.8,0.2,1,0.4c0.3,0.3,0.4,0.6,0.4,1C260.7,329.1,260.6,329.5,260.3,329.7z"/>
					</g>
				</g>
				<g>
					<path fill="#CC0000" d="M295.6,374.5c-0.2,0-0.5-0.1-0.7-0.2c-0.4-0.2-0.7-0.7-0.7-1.2v-40.4c0-2.4,1.9-4.3,4.3-4.3h37.6
						c2.4,0,4.3,1.9,4.3,4.3v29.8c0,2.4-1.9,4.3-4.3,4.3h-25.6l-14.3,7.6C296.1,374.5,295.8,374.5,295.6,374.5z M298.5,331.3
						c-0.8,0-1.5,0.7-1.5,1.5v38.1l12.6-6.6c0.2-0.1,0.4-0.2,0.6-0.2h25.9c0.8,0,1.5-0.7,1.5-1.5v-29.8c0-0.8-0.7-1.5-1.5-1.5H298.5
						z"/>
					<g>
						<path fill="#CC0000" d="M319.3,350.4h-3.9c-0.6,0-1-0.4-1-1v-3.9c0-0.6,0.4-1,1-1h3.9c0.6,0,1,0.4,1,1v3.9
							C320.3,350,319.8,350.4,319.3,350.4z"/>
						<path fill="#CC0000" d="M329.2,350.4h-3.9c-0.6,0-1-0.4-1-1v-3.9c0-0.6,0.4-1,1-1h3.9c0.6,0,1,0.4,1,1v3.9
							C330.2,350,329.8,350.4,329.2,350.4z"/>
						<path fill="#CC0000" d="M309.4,350.4h-3.9c-0.6,0-1-0.4-1-1v-3.9c0-0.6,0.4-1,1-1h3.9c0.6,0,1,0.4,1,1v3.9
							C310.4,350,309.9,350.4,309.4,350.4z"/>
					</g>
				</g>
				<g>
					<path fill="#CC0000" d="M414.7,371.5h-38.3c-2.4,0-4.3-1.9-4.3-4.3v-37.9c0-2.4,1.9-4.3,4.3-4.3h38.3c2.4,0,4.3,1.9,4.3,4.3
						v37.9C419,369.6,417.1,371.5,414.7,371.5z M376.4,327.8c-0.8,0-1.5,0.7-1.5,1.5v37.9c0,0.8,0.7,1.5,1.5,1.5h38.3
						c0.8,0,1.5-0.7,1.5-1.5v-37.9c0-0.8-0.7-1.5-1.5-1.5H376.4z"/>
					<rect x="373.5" y="332" fill="#CC0000" width="44.1" height="2.7"/>
					<rect x="373.5" y="357.5" fill="#CC0000" width="44.1" height="2.7"/>
					<circle fill="#CC0000" cx="395.6" cy="364.8" r="3"/>
				</g>
			</g>
			<path fill="#DDDDDD" d="M410.4,438.8h-7.6v-3.8h7.6V438.8z M395.2,438.8h-7.5v-3.8h7.5V438.8z M380.1,438.8h-7.5v-3.8h7.5V438.8z
				 M365.1,438.8h-7.5v-3.8h7.5V438.8z M350,438.8h-7.5v-3.8h7.5V438.8z M335,438.8h-7.5v-3.8h7.5V438.8z M319.9,438.8h-7.5v-3.8
				h7.5V438.8z M304.8,438.8h-7.5v-3.8h7.5V438.8z M289.8,438.8h-7.5v-3.8h7.5V438.8z M199.1,438.8h-7.5v-3.8h7.5V438.8z M184,438.8
				h-7.5v-3.8h7.5V438.8z M168.9,438.8h-7.5v-3.8h7.5V438.8z M153.9,438.8h-7.5v-3.8h7.5V438.8z M138.8,438.8h-7.5v-3.8h7.5V438.8z
				 M123.8,438.8h-7.5v-3.8h7.5V438.8z M108.7,438.8h-7.5v-3.8h7.5V438.8z M93.6,438.8h-7.5v-3.8h7.5V438.8z M78.6,438.8h-7.5v-3.8
				h7.5V438.8z M63.1,438c-2.6-0.7-5.1-1.7-7.4-3.2l2-3.2c2,1.2,4.1,2.1,6.4,2.7L63.1,438z M418.3,437.6l-1.1-3.6
				c2.2-0.7,4.3-1.7,6.2-3.1l2.2,3.1C423.3,435.6,420.9,436.8,418.3,437.6z M49.6,429.6c-1.8-2-3.2-4.3-4.3-6.8l3.4-1.5
				c0.9,2.1,2.2,4.1,3.7,5.9L49.6,429.6z M431.4,428.4l-3-2.3c1.4-1.8,2.6-3.9,3.4-6.1l3.5,1.3C434.4,423.9,433.1,426.3,431.4,428.4
				z M43.1,415c-0.1-1-0.2-2-0.2-2.9v-3.4c0-0.5,0-1,0-1.5l3.8,0.2c0,0.4,0,0.8,0,1.3v3.4c0,0.8,0,1.7,0.1,2.5L43.1,415z M437,413.5
				l-3.8-0.2c0-0.4,0-0.8,0-1.2v-3.4c0-0.9,0-1.7-0.1-2.6l3.7-0.4c0.1,1,0.2,2,0.2,3v3.4C437,412.5,437,413,437,413.5z M48.2,400.6
				l-3.5-1.3c1-2.5,2.3-4.9,3.9-7l3,2.3C50.2,396.4,49,398.4,48.2,400.6z M431.3,399.4c-0.9-2.1-2.2-4.1-3.7-5.8l2.8-2.5
				c1.8,2,3.2,4.3,4.3,6.8L431.3,399.4z M56.6,389.8l-2.2-3.1c2.2-1.6,4.7-2.8,7.2-3.6l1.1,3.6C60.6,387.4,58.6,388.4,56.6,389.8z
				 M422.3,389.1c-2-1.2-4.1-2.1-6.4-2.7l0.9-3.6c2.6,0.7,5.1,1.7,7.4,3.2L422.3,389.1z M408.9,385.6h-7.5v-3.8h7.5V385.6z
				 M393.8,385.6h-7.5v-3.8h7.5V385.6z M378.8,385.6h-7.5v-3.8h7.5V385.6z M363.7,385.6h-7.5v-3.8h7.5V385.6z M348.7,385.6h-7.5
				v-3.8h7.5V385.6z M333.6,385.6h-7.5v-3.8h7.5V385.6z M318.5,385.6H311v-3.8h7.5V385.6z M303.5,385.6H296v-3.8h7.5V385.6z
				 M288.4,385.6h-7.5v-3.8h7.5V385.6z M197.7,385.6h-7.5v-3.8h7.5V385.6z M182.6,385.6h-7.5v-3.8h7.5V385.6z M167.6,385.6h-7.5
				v-3.8h7.5V385.6z M152.5,385.6H145v-3.8h7.5V385.6z M137.5,385.6h-7.5v-3.8h7.5V385.6z M122.4,385.6h-7.5v-3.8h7.5V385.6z
				 M273,385.6h-7.5v-3.8h7.5V385.6z M258,385.6h-7.5v-3.8h7.5V385.6z M242.9,385.6h-7.5v-3.8h7.5V385.6z M227.8,385.6h-7.5v-3.8
				h7.5V385.6z M212.8,385.6h-7.5v-3.8h7.5V385.6z M289.8,438.9h-7.5v-3.8h7.5V438.9z M274.4,438.9h-7.5v-3.8h7.5V438.9z
				 M259.3,438.9h-7.5v-3.8h7.5V438.9z M244.3,438.9h-7.5v-3.8h7.5V438.9z M229.2,438.9h-7.5v-3.8h7.5V438.9z M214.2,438.9h-7.5
				v-3.8h7.5V438.9z M107.3,385.6h-7.5v-3.8h7.5V385.6z M92.3,385.6h-7.5v-3.8h7.5V385.6z M77.2,385.6h-7.5l-0.1-3.8h7.5V385.6z"/>
			<g>
				<path fill="#DDDDDD" d="M73.2,395.4c-8.3,0-15,6.7-15,15c0,8.3,6.7,15,15,15c8.3,0,15-6.7,15-15
					C88.2,402.1,81.5,395.4,73.2,395.4z M78.2,413.5c0.6,0.6,0.6,1.6,0,2.2c-0.3,0.3-0.7,0.5-1.1,0.5c-0.4,0-0.8-0.2-1.1-0.5
					l-2.8-2.8l-2.8,2.8c-0.3,0.3-0.7,0.5-1.1,0.5s-0.8-0.2-1.1-0.5c-0.6-0.6-0.6-1.6,0-2.2l2.8-2.8l-2.8-2.8c-0.6-0.6-0.6-1.6,0-2.2
					c0.6-0.6,1.6-0.6,2.2,0l2.8,2.8l2.8-2.8c0.6-0.6,1.6-0.6,2.2,0c0.6,0.6,0.6,1.6,0,2.2l-2.8,2.8L78.2,413.5z"/>
				<path fill="#DDDDDD" d="M407.1,395.4c-8.3,0-15,6.7-15,15c0,8.3,6.7,15,15,15c8.3,0,15-6.7,15-15
					C422.1,402.1,415.4,395.4,407.1,395.4z M412,413.5c0.6,0.6,0.6,1.6,0,2.2c-0.3,0.3-0.7,0.5-1.1,0.5c-0.4,0-0.8-0.2-1.1-0.5
					l-2.8-2.8l-2.8,2.8c-0.3,0.3-0.7,0.5-1.1,0.5c-0.4,0-0.8-0.2-1.1-0.5c-0.6-0.6-0.6-1.6,0-2.2l2.8-2.8l-2.8-2.8
					c-0.6-0.6-0.6-1.6,0-2.2c0.6-0.6,1.6-0.6,2.2,0l2.8,2.8l2.8-2.8c0.6-0.6,1.6-0.6,2.2,0c0.6,0.6,0.6,1.6,0,2.2l-2.8,2.8
					L412,413.5z"/>
				<path fill="#DDDDDD" d="M407.1,389H289.5h-10.3h-78.6H192H72.9c-11.8,0-21.4,9.6-21.4,21.4c0,11.8,9.6,21.4,21.4,21.4H192h8.7
					h78.6h10.3h117.5c11.8,0,21.4-9.6,21.4-21.4C428.5,398.6,418.8,389,407.1,389z M73.2,428.5c-10,0-18.1-8.1-18.1-18.1
					c0-10,8.1-18.1,18.1-18.1c10,0,18.1,8.1,18.1,18.1C91.3,420.3,83.2,428.5,73.2,428.5z M407,428.5c-10,0-18.1-8.1-18.1-18.1
					c0-10,8.1-18.1,18.1-18.1c10,0,18.1,8.1,18.1,18.1C425.1,420.3,417,428.5,407,428.5z"/>
			</g>
		</g>
	</g>
</g>
</svg>
