<?xml version="1.0" encoding="utf-8"?>
<!-- Generator: Adobe Illustrator 18.0.0, SVG Export Plug-In . SVG Version: 6.00 Build 0)  -->
<!DOCTYPE svg PUBLIC "-//W3C//DTD SVG 1.1//EN" "http://www.w3.org/Graphics/SVG/1.1/DTD/svg11.dtd">
<svg version="1.1" xmlns="http://www.w3.org/2000/svg" xmlns:xlink="http://www.w3.org/1999/xlink" x="0px" y="0px"
	 viewBox="0 0 1198.6 351.1" enable-background="new 0 0 1198.6 351.1" xml:space="preserve">
<g id="Layer_1">
	<rect x="1004" y="164.3" fill="#DDDDDD" width="11.6" height="88"/>
	<path fill="#DDDDDD" d="M988.8,153.8h13.1c3,0,5.5,2.4,5.5,5.5v98c0,3-2.4,5.5-5.5,5.5h-13.1c-3,0-5.5-2.4-5.5-5.5v-98
		C983.4,156.2,985.8,153.8,988.8,153.8z"/>
	<path fill="#DDDDDD" d="M1037.7,223.3h-25c-4.5,0-8.2-3.7-8.2-8.2v-13.6c0-4.5,3.7-8.2,8.2-8.2h25c4.5,0,8.2,3.7,8.2,8.2v13.6
		C1045.9,219.6,1042.2,223.3,1037.7,223.3z"/>
	<path fill="#DDDDDD" d="M1156.6,228.8h-124.8c-3.6,0-6.6-3-6.6-6.6v-27.9c0-3.6,3-6.6,6.6-6.6h124.8c3.6,0,6.6,3,6.6,6.6v27.9
		C1163.2,225.9,1160.2,228.8,1156.6,228.8z"/>
	<path fill="#DDDDDD" d="M1163.2,194.3v163.4c0,3.6-3,6.6-6.6,6.6h-27.9c-3.6,0-6.6-3-6.6-6.6V194.3c0-3.6,3-6.6,6.6-6.6h27.9
		C1160.2,187.7,1163.2,190.7,1163.2,194.3z"/>
</g>
<g id="Meet_US" display="none">
</g>
<g id="Home">
</g>
</svg>
