<?xml version="1.0" encoding="utf-8"?>
<!-- Generator: Adobe Illustrator 18.0.0, SVG Export Plug-In . SVG Version: 6.00 Build 0)  -->
<!DOCTYPE svg PUBLIC "-//W3C//DTD SVG 1.1//EN" "http://www.w3.org/Graphics/SVG/1.1/DTD/svg11.dtd">
<svg version="1.1" id="Layer_1" xmlns="http://www.w3.org/2000/svg" xmlns:xlink="http://www.w3.org/1999/xlink" x="0px" y="0px"
	 viewBox="0 0 80 80" enable-background="new 0 0 80 80" xml:space="preserve">
<g>
	<g>
		<g>
			<g>
				<path fill="#FFFFFF" d="M73,24.2H7.1c-0.4,0-0.8-0.4-0.8-0.9v-6.2c0-0.4,0.3-0.8,0.8-0.8H73c0.4,0,0.7,0.4,0.7,0.8v6.2
					C73.7,23.8,73.4,24.2,73,24.2z M7.7,22.6h64.5V18H7.7V22.6z"/>
			</g>
			<g>
				<path fill="#FFFFFF" d="M73,63.7H7.1c-0.4,0-0.8-0.3-0.8-0.8V23.4c0-0.4,0.3-0.8,0.8-0.8H73c0.4,0,0.7,0.4,0.7,0.8v39.5
					C73.7,63.3,73.4,63.7,73,63.7z M7.7,62.2h64.5v-38H7.7V62.2z"/>
			</g>
			<g>
				<circle fill="#FFFFFF" cx="63.5" cy="20.3" r="1.2"/>
			</g>
			<g>
				<circle fill="#FFFFFF" cx="66.6" cy="20.3" r="1.2"/>
			</g>
			<g>
				<circle fill="#FFFFFF" cx="69.7" cy="20.3" r="1.2"/>
			</g>
			<g>
				<path fill="#FFFFFF" d="M21.8,63.7H7.1c-0.4,0-0.8-0.3-0.8-0.8V23.4c0-0.4,0.3-0.8,0.8-0.8h14.7c0.4,0,0.8,0.4,0.8,0.8v39.5
					C22.6,63.3,22.2,63.7,21.8,63.7z M7.7,62.2h13.4v-38H7.7V62.2z"/>
			</g>
		</g>
		<g>
			<path fill="#FFFFFF" d="M17.8,34.2c0,0.4-0.3,0.8-0.8,0.8h-6.1c-0.4,0-0.8-0.3-0.8-0.8v-5.4c0-0.4,0.3-0.8,0.8-0.8H17
				c0.4,0,0.8,0.3,0.8,0.8V34.2z M11.8,33.5h4.5v-4.1h-4.5V33.5z"/>
		</g>
		<g>
			<path fill="#FFFFFF" d="M17.2,45h-6.2c-0.4,0-0.8-0.3-0.8-0.7v-5.4c0-0.4,0.4-0.8,0.8-0.8h6.2c0.4,0,0.9,0.3,0.9,0.8v5.4
				C18,44.7,17.6,45,17.2,45z M11.8,43.6h4.5v-4.1h-4.5V43.6z"/>
		</g>
		<g>
			<path fill="#FFFFFF" d="M17.2,55.1h-6.2c-0.4,0-0.8-0.3-0.8-0.7v-5.4c0-0.4,0.4-0.8,0.8-0.8h6.2c0.4,0,0.9,0.4,0.9,0.8v5.4
				C18,54.8,17.6,55.1,17.2,55.1z M11.8,53.6h4.5v-3.8h-4.5V53.6z"/>
		</g>
		<rect x="29.5" y="31.9" fill="#FFFFFF" width="21.7" height="1.4"/>
		<rect x="29.5" y="41.2" fill="#FFFFFF" width="35.6" height="1.4"/>
		<rect x="29.5" y="47.4" fill="#FFFFFF" width="35.6" height="1.4"/>
		<rect x="29.5" y="53.6" fill="#FFFFFF" width="35.6" height="1.4"/>
	</g>
</g>
</svg>
