<?xml version="1.0" encoding="utf-8"?>
<!-- Generator: Adobe Illustrator 18.0.0, SVG Export Plug-In . SVG Version: 6.00 Build 0)  -->
<!DOCTYPE svg PUBLIC "-//W3C//DTD SVG 1.1//EN" "http://www.w3.org/Graphics/SVG/1.1/DTD/svg11.dtd">
<svg version="1.1" id="Layer_1" xmlns="http://www.w3.org/2000/svg" xmlns:xlink="http://www.w3.org/1999/xlink" x="0px" y="0px"
	 viewBox="0 0 200 45" enable-background="new 0 0 200 45" xml:space="preserve">
<g>
	<g>
		<polygon fill="#FFFFFF" points="92,23.1 99.1,23.1 100.2,26 90.6,26 89.1,29.2 84.9,29.2 95.4,7.7 98.3,7.7 108.8,29.2 
			104.5,29.2 96.8,12.6 92,23.1 92,23.1 		"/>
		<polygon fill="#FFFFFF" points="11.9,23.1 19,23.1 20.1,26 10.5,26 9,29.2 4.8,29.2 15.3,7.7 18.2,7.7 28.7,29.2 24.4,29.2 
			16.7,12.6 11.9,23.1 11.9,23.1 		"/>
		<polygon fill="#FFFFFF" points="51.8,23.1 58.9,23.1 60,26 50.4,26 48.9,29.2 44.7,29.2 55.2,7.7 58.1,7.7 68.6,29.2 64.3,29.2 
			56.6,12.6 51.8,23.1 51.8,23.1 		"/>
		<polygon fill="#FFFFFF" points="24.7,7.7 35.2,29.2 35.4,29.2 38,29.2 38.1,29.2 48.6,7.7 44.4,7.7 36.7,24.6 28.9,7.7 24.7,7.7 
			24.7,7.7 		"/>
		<polygon fill="#FFFFFF" points="74.4,37.3 88.9,7.7 84.7,7.7 76.6,24.9 69.2,7.7 65,7.7 74.5,29.2 70.4,37.3 74.4,37.3 74.4,37.3 
					"/>
	</g>
	<g>
		<g>
			<polyline fill="#FFFFFF" points="115.2,23.7 113.1,23.7 113.1,22.3 118.7,22.3 118.7,23.7 116.7,23.7 116.7,29.1 115.2,29.1 			
				"/>
			<path fill="#FFFFFF" d="M119.4,22h1.5v2.6c0.3-0.4,0.8-0.8,1.5-0.8c1.1,0,1.8,0.7,1.8,1.9v3.4h-1.5v-2.9c0-0.7-0.3-1.1-0.9-1.1
				c-0.6,0-0.9,0.4-0.9,1.1v2.9h-1.5"/>
			<path fill="#FFFFFF" d="M128.5,26.1c-0.1-0.7-0.5-1.1-1.1-1.1c-0.6,0-1,0.4-1.1,1.1 M124.8,26.5L124.8,26.5
				c0-1.5,1.1-2.7,2.6-2.7c1.7,0,2.5,1.3,2.5,2.8c0,0.1,0,0.3,0,0.4h-3.6c0.1,0.7,0.6,1,1.3,1c0.5,0,0.8-0.2,1.3-0.5l0.8,0.7
				c-0.5,0.6-1.2,1-2.1,1C126,29.2,124.8,28.1,124.8,26.5"/>
			<path fill="#FFFFFF" d="M136.1,25.7c0.7,0,1.2-0.4,1.2-1v0c0-0.7-0.5-1-1.2-1h-1.2v2.1 M133.4,22.3h2.8c1.6,0,2.6,1,2.6,2.3v0
				c0,1.6-1.2,2.4-2.7,2.4h-1.1v2h-1.5V22.3z"/>
			<path fill="#FFFFFF" d="M143.2,26.5L143.2,26.5c0-0.8-0.6-1.5-1.4-1.5c-0.8,0-1.3,0.6-1.3,1.4v0c0,0.8,0.5,1.4,1.4,1.4
				C142.7,28,143.2,27.3,143.2,26.5 M139.1,26.5L139.1,26.5c0-1.5,1.2-2.7,2.8-2.7c1.6,0,2.8,1.2,2.8,2.7v0c0,1.5-1.2,2.7-2.8,2.7
				C140.3,29.2,139.1,28,139.1,26.5"/>
			<polyline fill="#FFFFFF" points="144.8,23.9 146.3,23.9 147.1,27.1 148.1,23.9 149.3,23.9 150.3,27.1 151.2,23.9 152.6,23.9 
				151,29.1 149.7,29.1 148.7,26 147.7,29.1 146.4,29.1 			"/>
			<path fill="#FFFFFF" d="M156.3,26.1c-0.1-0.7-0.5-1.1-1.1-1.1c-0.6,0-1,0.4-1.1,1.1 M152.7,26.5L152.7,26.5
				c0-1.5,1.1-2.7,2.6-2.7c1.7,0,2.5,1.3,2.5,2.8c0,0.1,0,0.3,0,0.4h-3.6c0.1,0.7,0.6,1,1.3,1c0.5,0,0.9-0.2,1.3-0.5l0.8,0.7
				c-0.5,0.6-1.2,1-2.1,1C153.8,29.2,152.7,28.1,152.7,26.5"/>
			<path fill="#FFFFFF" d="M158.5,23.9h1.5v1c0.3-0.7,0.8-1.2,1.7-1.1v1.5h-0.1c-1,0-1.6,0.6-1.6,1.8v1.9h-1.5"/>
			<path fill="#FFFFFF" d="M168.7,26.5L168.7,26.5c0-0.8-0.6-1.5-1.4-1.5c-0.8,0-1.3,0.6-1.3,1.4v0c0,0.8,0.6,1.4,1.4,1.4
				C168.2,28,168.7,27.3,168.7,26.5 M164.6,26.5L164.6,26.5c0-1.5,1.2-2.7,2.8-2.7c1.6,0,2.8,1.2,2.8,2.7v0c0,1.5-1.2,2.7-2.8,2.7
				C165.8,29.2,164.6,28,164.6,26.5"/>
			<path fill="#FFFFFF" d="M171.2,25.2h-0.6V24h0.6v-0.3c0-0.6,0.1-1,0.4-1.3c0.3-0.3,0.7-0.4,1.2-0.4c0.5,0,0.8,0.1,1,0.1v1.2
				c-0.2-0.1-0.4-0.1-0.7-0.1c-0.3,0-0.5,0.2-0.5,0.6V24h1.2v1.2h-1.2v3.9h-1.5"/>
			<polyline fill="#FFFFFF" points="176.5,22.3 178.1,22.3 179.5,26.9 181,22.3 182.3,22.3 183.8,26.9 185.2,22.3 186.7,22.3 
				184.4,29.1 183.1,29.1 181.6,24.7 180.1,29.1 178.8,29.1 			"/>
			<path fill="#FFFFFF" d="M190.1,26.1c-0.1-0.7-0.5-1.1-1.1-1.1c-0.6,0-1,0.4-1.1,1.1 M186.5,26.5L186.5,26.5
				c0-1.5,1.1-2.7,2.6-2.7c1.7,0,2.5,1.3,2.5,2.8c0,0.1,0,0.3,0,0.4h-3.6c0.1,0.7,0.6,1,1.3,1c0.5,0,0.9-0.2,1.3-0.5l0.8,0.7
				c-0.5,0.6-1.2,1-2.1,1C187.6,29.2,186.5,28.1,186.5,26.5"/>
		</g>
		<g>
			<path fill="#FFFFFF" d="M192.4,22.6h-0.5v-0.3h1.4v0.3h-0.5v1.3h-0.4V22.6z"/>
			<path fill="#FFFFFF" d="M193.6,22.3h0.4l0.4,0.7l0.4-0.7h0.4v1.6h-0.4v-1.1l-0.5,0.7h0l-0.5-0.7v1.1h-0.4V22.3z"/>
		</g>
	</g>
</g>
</svg>
