<?xml version="1.0" encoding="utf-8"?>
<!-- Generator: Adobe Illustrator 18.0.0, SVG Export Plug-In . SVG Version: 6.00 Build 0)  -->
<!DOCTYPE svg PUBLIC "-//W3C//DTD SVG 1.1//EN" "http://www.w3.org/Graphics/SVG/1.1/DTD/svg11.dtd">
<svg version="1.1" id="Layer_1" xmlns="http://www.w3.org/2000/svg" xmlns:xlink="http://www.w3.org/1999/xlink" x="0px" y="0px"
	 viewBox="0 0 200 200" enable-background="new 0 0 200 200" xml:space="preserve">
<g>
	<polygon fill="#FFFFFF" points="92.9,106.2 100.3,106.2 96.6,85.6 	"/>
	<path fill="#FFFFFF" d="M45.8,84.2c-4.1,0-5.5,7.4-5.5,15.8c0,8.2,1.4,15.8,5.5,15.8c4.1,0,5.5-7.5,5.5-15.8
		C51.3,91.6,49.9,84.2,45.8,84.2z"/>
	<path fill="#FFFFFF" d="M100,0C44.8,0,0,44.8,0,100c0,55.2,44.8,100,100,100c55.2,0,100-44.8,100-100C200,44.8,155.2,0,100,0z
		 M27.9,117.3c-5.4,0-7.2-7.8-7.2-17.2c0-9.5,1.9-17.3,7.2-17.3c3.3,0,4.8,2.5,5.7,5.2l-1.5,0.6c-0.9-2.6-1.9-4.2-4.2-4.2
		c-3.9,0-5.5,7-5.5,15.8c0,8.8,1.6,15.8,5.5,15.8c2.6,0,3.6-2.3,4.3-5.2l1.5,0.6C32.9,114.5,31.3,117.3,27.9,117.3z M45.8,117.3
		c-5.5,0-7.2-8-7.2-17.2c0-9.3,1.8-17.3,7.2-17.3c5.5,0,7.3,8,7.3,17.3C53,109.3,51.3,117.3,45.8,117.3z M71.8,116.7h-1.6l-9.4-28.8
		v28.8h-1.6V83.3h1.6l9.4,28.5V83.3h1.6V116.7z M88.9,84.8h-5.5v31.9h-1.6V84.8h-5.5v-1.5h12.6V84.8z M102.1,116.7l-1.6-9h-7.9
		l-1.6,9h-1.7l6.2-33.4h1.9l6.2,33.4H102.1z M114.3,117.3c-5.4,0-7.2-7.8-7.2-17.2c0-9.5,1.8-17.3,7.2-17.3c3.2,0,4.8,2.5,5.7,5.2
		l-1.5,0.6c-0.9-2.6-1.9-4.2-4.2-4.2c-4,0-5.5,7-5.5,15.8c0,8.8,1.5,15.8,5.5,15.8c2.5,0,3.5-2.3,4.3-5.2l1.5,0.6
		C119.3,114.5,117.6,117.3,114.3,117.3z M135.6,84.8h-5.5v31.9h-1.6V84.8h-5.5v-1.5h12.6V84.8z M161.7,109c0,5.8-2.4,8.3-6.3,8.3
		s-6.3-2.5-6.3-8.3V83.3h1.6V109c0,5.1,1.9,6.8,4.7,6.8s4.7-1.8,4.7-6.8V83.3h1.6V109z M172.6,117.3c-2.3,0-4.4-1-5.9-2.8l1.2-1.3
		c1,1.6,2.9,2.7,4.7,2.7c2.8,0,5.2-2.5,5.2-6.5c0-9-10.2-10.1-10.2-19.3c0-4.6,3-7.3,6.2-7.3c1.9,0,3.6,0.7,4.9,2.1l-1,1.2
		c-1-1.2-2.3-1.8-3.9-1.8c-2.4,0-4.7,2.2-4.7,5.8c0,7.7,10.2,9.5,10.2,19.3C179.3,113.8,176.6,117.3,172.6,117.3z"/>
</g>
</svg>
