<?xml version="1.0" encoding="utf-8"?>
<!-- Generator: Adobe Illustrator 18.0.0, SVG Export Plug-In . SVG Version: 6.00 Build 0)  -->
<!DOCTYPE svg PUBLIC "-//W3C//DTD SVG 1.1//EN" "http://www.w3.org/Graphics/SVG/1.1/DTD/svg11.dtd">
<svg version="1.1" id="Layer_1" xmlns="http://www.w3.org/2000/svg" xmlns:xlink="http://www.w3.org/1999/xlink" x="0px" y="0px"
	 viewBox="0 0 80 80" enable-background="new 0 0 80 80" xml:space="preserve">
<g>
	<path fill="#FFFFFF" d="M62.1,34.5c0-0.2-0.1-0.5-0.3-0.6l-12.7-9.7c-0.3-0.2-1.2-1-3-1c-0.3,0-0.6,0-0.9,0.1l-0.2,0v-4.1
		c0-0.4-0.3-0.7-0.7-0.8c0,0-1.2-0.2-2.5,0.4l-0.3,0.1v-4.7c0-0.5-0.4-0.8-0.8-0.8c-9.2,0-16.7,7.5-16.7,16.6v24.7l-0.2,0
		c-1.5,0.2-2.6,1.4-2.6,2.9c0,0.6,0.2,1.2,0.6,1.7l0.1,0.2l-0.2,0.1c-2.4,1.2-3.9,3.6-4,6.3c0,0.2,0.1,0.4,0.2,0.6
		c0.2,0.2,0.4,0.3,0.6,0.3h34c0.2,0,0.4-0.1,0.6-0.3c0.2-0.2,0.2-0.4,0.2-0.6c-0.1-2.7-1.6-5-4-6.3l-0.2-0.1l0.1-0.2
		c0.4-0.5,0.6-1.1,0.6-1.7c0-1.6-1.3-2.9-2.9-2.9l-0.2,0l0-0.2c0.2-1.6,0.5-6.9-4.4-10c-0.3-0.2-2.9-1.8-1.9-5.4l0-0.2l12.8,3.7
		c0.3,0.1,0.6,0,0.8-0.2l7.5-7.2C62,35,62.1,34.7,62.1,34.5z M51.8,64.8l0,0.2H19.6l0-0.2c0.6-2.5,2.8-4.3,5.4-4.3h21.4
		C49,60.5,51.2,62.3,51.8,64.8z M47.2,56.3c0.7,0,1.2,0.6,1.2,1.2s-0.6,1.2-1.2,1.2h-23c-0.7,0-1.2-0.6-1.2-1.2s0.6-1.2,1.2-1.2
		H47.2z M53.6,40.8l-13.1-3.8c-0.4-0.1-0.9,0.1-1,0.5c-1.8,4.5,0.7,7.4,2.3,8.3c4.3,2.7,3.7,7.7,3.6,8.6l0,0.1H25.7V39.9h2.7
		c0.5,0,0.8-0.4,0.8-0.8s-0.4-0.8-0.8-0.8h-2.7v-3.9h2.7c0.5,0,0.8-0.4,0.8-0.8s-0.4-0.8-0.8-0.8h-2.7v-2.7c0-0.3,0-0.5,0-0.7l0-0.3
		h2.6c0.5,0,0.8-0.4,0.8-0.8c0-0.5-0.4-0.8-0.8-0.8H26l0-0.2c0.3-1.7,1-3.2,1.9-4.7l0.1-0.2l2.3,1.5c0.4,0.2,0.9,0.1,1.2-0.2
		c0.1-0.2,0.2-0.4,0.1-0.6c0-0.2-0.2-0.4-0.4-0.5l-2.2-1.4l0.1-0.2c1.1-1.4,2.4-2.5,3.9-3.4l0.1-0.1l1.8,2.9
		c0.2,0.4,0.8,0.5,1.2,0.3c0.4-0.2,0.5-0.8,0.3-1.2l-1.7-2.8l0.2-0.1c1.6-0.7,3.3-1.1,5-1.2l0.2,0v5.9c0,0.4,0.3,0.7,0.6,0.8
		c0.4,0.1,0.7-0.1,0.9-0.4c0.5-0.9,1.2-1.2,1.7-1.4l0.2-0.1v4.4c0,0.3,0.1,0.5,0.3,0.7c0.2,0.2,0.5,0.2,0.7,0.1
		c0.6-0.2,1.1-0.3,1.7-0.3c1.2,0,1.7,0.5,1.8,0.5c0,0,0.1,0.1,0.1,0.1l12,9.2L53.6,40.8z"/>
</g>
</svg>
