<?xml version="1.0" encoding="utf-8"?>
<!-- Generator: Adobe Illustrator 18.0.0, SVG Export Plug-In . SVG Version: 6.00 Build 0)  -->
<!DOCTYPE svg PUBLIC "-//W3C//DTD SVG 1.1//EN" "http://www.w3.org/Graphics/SVG/1.1/DTD/svg11.dtd">
<svg version="1.1" id="Layer_1" xmlns="http://www.w3.org/2000/svg" xmlns:xlink="http://www.w3.org/1999/xlink" x="0px" y="0px"
	 viewBox="0 0 65 65" enable-background="new 0 0 65 65" xml:space="preserve">
<g>
	<path fill="#404040" d="M32.5,62.9c-16.7,0-30.4-13.6-30.4-30.4c0-16.7,13.6-30.4,30.4-30.4c16.7,0,30.4,13.6,30.4,30.4
		C62.9,49.2,49.2,62.9,32.5,62.9z M32.5,3.6c-16,0-28.9,13-28.9,28.9c0,16,13,28.9,28.9,28.9c16,0,28.9-13,28.9-28.9
		C61.4,16.5,48.5,3.6,32.5,3.6z"/>
	<polygon fill="#404040" points="40.4,51.1 16.6,32.5 40.4,13.9 41.3,15.1 18.9,32.5 41.3,49.9 	"/>
</g>
</svg>
