<?xml version="1.0" encoding="utf-8"?>
<!-- Generator: Adobe Illustrator 18.0.0, SVG Export Plug-In . SVG Version: 6.00 Build 0)  -->
<!DOCTYPE svg PUBLIC "-//W3C//DTD SVG 1.1//EN" "http://www.w3.org/Graphics/SVG/1.1/DTD/svg11.dtd">
<svg version="1.1" id="Layer_1" xmlns="http://www.w3.org/2000/svg" xmlns:xlink="http://www.w3.org/1999/xlink" x="0px" y="0px"
	 viewBox="0 0 80 80" enable-background="new 0 0 80 80" xml:space="preserve">
<path fill="#FFFFFF" d="M59.2,64.5l1,1c0.7,0.7,1.7,1.1,2.8,1.1c1,0,2-0.4,2.8-1.1c0.7-0.7,1.1-1.7,1.1-2.7c0-1-0.4-2-1.1-2.7
	l-18-17.9l18.5-18.4c0.3-0.3,0.5-0.7,0.5-1.1c0-0.4-0.2-0.8-0.5-1.1l-7.8-7.8c-0.6-0.6-1.7-0.6-2.3,0L37.6,32.1L25.9,20.5
	c0,0-0.1-0.1-0.1-0.1l-0.1,0l-9.3-4.9c-0.3-0.2-0.7-0.1-1,0.1c-0.3,0.3-0.3,0.6-0.1,0.9l4.9,9.3c0,0.1,0.1,0.1,0.1,0.2l0,0.1
	l11.7,11.6L13.6,56c-0.3,0.3-0.5,0.7-0.5,1.1c0,0.4,0.2,0.8,0.5,1.1l7.8,7.8c0.6,0.6,1.7,0.6,2.3,0l18.5-18.4L59.2,64.5z M64.6,61.2
	c0.4,0.4,0.7,1,0.7,1.6c0,0.6-0.2,1.2-0.7,1.6c-0.4,0.4-1,0.6-1.6,0.6c-0.6,0-1.2-0.2-1.6-0.6L60.9,64l3.2-3.2L64.6,61.2z
	 M39.9,32.2l3.6,3.6c0.1,0.1,0.2,0.1,0.3,0c0,0,0.1-0.1,0.1-0.2c0-0.1,0-0.1-0.1-0.2l-3.6-3.6l1.8-1.8l3.6,3.6
	c0.1,0.1,0.2,0.1,0.3,0c0,0,0.1-0.1,0.1-0.2c0-0.1,0-0.1-0.1-0.2l-3.6-3.6l1.8-1.8l3.6,3.6c0.1,0.1,0.2,0.1,0.3,0
	c0,0,0.1-0.1,0.1-0.2c0-0.1,0-0.1-0.1-0.2l-3.6-3.6l1.8-1.8l3.6,3.6c0.1,0.1,0.2,0.1,0.3,0c0,0,0.1-0.1,0.1-0.2c0-0.1,0-0.1-0.1-0.2
	l-3.6-3.6l1.8-1.8l3.6,3.6c0.1,0.1,0.2,0.1,0.3,0c0,0,0.1-0.1,0.1-0.2c0-0.1,0-0.1-0.1-0.2l-3.6-3.6l1.8-1.8l3.6,3.6
	c0.1,0.1,0.2,0.1,0.3,0c0,0,0.1-0.1,0.1-0.2c0-0.1,0-0.1-0.1-0.2l-3.6-3.6l1.8-1.8l3.6,3.6c0.1,0.1,0.2,0.1,0.3,0
	c0,0,0.1-0.1,0.1-0.2c0-0.1,0-0.1-0.1-0.2l-3.6-3.6l1.8-1.8l3.6,3.6c0.1,0.1,0.2,0.1,0.3,0c0,0,0.1-0.1,0.1-0.2c0-0.1,0-0.1-0.1-0.2
	l-3.6-3.6l2.5-2.5l7.8,7.7L46.6,41l-7.8-7.8L39.9,32.2z M18,18.1l6,3.2l-2.8,2.8L18,18.1z M22.1,25.4l3.2-3.2L63,59.6l-3.2,3.2
	L22.1,25.4z M22.5,64.9l-7.8-7.8l2.2-2.2l3.6,3.6c0.1,0.1,0.2,0.1,0.3,0c0,0,0.1-0.1,0.1-0.2c0-0.1,0-0.1-0.1-0.2l-3.6-3.6l1.8-1.8
	l3.6,3.6c0.1,0.1,0.2,0.1,0.3,0c0,0,0.1-0.1,0.1-0.2c0-0.1,0-0.1-0.1-0.2l-3.6-3.6l1.8-1.8l3.6,3.6c0.1,0.1,0.2,0.1,0.3,0
	c0,0,0.1-0.1,0.1-0.2c0-0.1,0-0.1-0.1-0.2l-3.6-3.6l1.8-1.8l3.6,3.6c0.1,0.1,0.2,0.1,0.3,0c0,0,0.1-0.1,0.1-0.2s0-0.1-0.1-0.2
	l-3.6-3.6l1.8-1.8l3.6,3.6c0.1,0.1,0.2,0.1,0.3,0c0,0,0.1-0.1,0.1-0.2s0-0.1-0.1-0.2l-3.6-3.6l1.8-1.8l3.6,3.6
	c0.1,0.1,0.2,0.1,0.3,0c0,0,0.1-0.1,0.1-0.2c0-0.1,0-0.1-0.1-0.2l-3.6-3.6l1.8-1.8l3.6,3.6c0.1,0.1,0.2,0.1,0.3,0
	c0,0,0.1-0.1,0.1-0.2c0-0.1,0-0.1-0.1-0.2l-3.6-3.6l1.8-1.8l3.6,3.6c0.1,0.1,0.2,0.1,0.3,0c0,0,0.1-0.1,0.1-0.2c0-0.1,0-0.1-0.1-0.2
	l-3.6-3.6l1.4-1.4l7.8,7.8L22.5,64.9z"/>
</svg>
