<?xml version="1.0" encoding="utf-8"?>
<!-- Generator: Adobe Illustrator 18.0.0, SVG Export Plug-In . SVG Version: 6.00 Build 0)  -->
<!DOCTYPE svg PUBLIC "-//W3C//DTD SVG 1.1//EN" "http://www.w3.org/Graphics/SVG/1.1/DTD/svg11.dtd">
<svg version="1.1" xmlns="http://www.w3.org/2000/svg" xmlns:xlink="http://www.w3.org/1999/xlink" x="0px" y="0px"
	 viewBox="0 0 65 65" enable-background="new 0 0 65 65" xml:space="preserve">
<g id="Layer_1">
</g>
<g id="Meet_US" display="none">
</g>
<g id="Inner_Content" display="none">
</g>
<g id="Home">
	<path opacity="0.66" fill="#FFFFFF" d="M32.5,1C23.1,1,15.4,6.8,15.4,14v37.1h0c0,7.1,7.7,12.9,17.1,12.9c9.4,0,17.1-5.8,17.1-12.9
		c0-0.3,0-36.8,0-37.1C49.6,6.8,41.9,1,32.5,1z M34.6,24.4c0,1.1-0.9,2.1-2.1,2.1s-2.1-0.9-2.1-2.1V14.2c0-1.1,0.9-2.1,2.1-2.1
		s2.1,0.9,2.1,2.1V24.4z"/>
</g>
</svg>
