
<svg version="1.1" id="Layer_1" xmlns="http://www.w3.org/2000/svg" xmlns:xlink="http://www.w3.org/1999/xlink" x="0px" y="0px"
	 viewBox="0 0 50 50" enable-background="new 0 0 50 50" xml:space="preserve">
<path fill="#FFFFFF" d="M25,3.6C13.2,3.6,3.6,13.2,3.6,25c0,11.8,9.6,21.4,21.4,21.4S46.4,36.8,46.4,25C46.4,13.2,36.8,3.6,25,3.6z
	 M31.6,44.3V31.4h5.1l0.8-5.9h-5.8v-3.8c0-1.7,0.5-2.9,2.9-2.9h3.1v-5.3c-0.5-0.1-2.4-0.2-4.5-0.2c-4.5,0-7.6,2.7-7.6,7.8v4.3h-5.1
	v5.9h5.1v14c-0.2,0-0.4,0-0.6,0C13.7,45.5,4.5,36.3,4.5,25C4.5,13.7,13.7,4.5,25,4.5S45.5,13.7,45.5,25C45.5,34,39.7,41.6,31.6,44.3
	z"/>
</svg>
