
<svg version="1.1" id="Layer_1" xmlns="http://www.w3.org/2000/svg" xmlns:xlink="http://www.w3.org/1999/xlink" x="0px" y="0px"
	 viewBox="0 0 50 50" enable-background="new 0 0 50 50" xml:space="preserve">

	<path fill-rule="evenodd" clip-rule="evenodd" fill="#FFFFFF" d="M25,3.6C13.2,3.6,3.6,13.2,3.6,25c0,11.8,9.6,21.4,21.4,21.4
		S46.4,36.8,46.4,25C46.4,13.2,36.8,3.6,25,3.6z M25,45.5C13.7,45.5,4.5,36.3,4.5,25C4.5,13.7,13.7,4.5,25,4.5S45.5,13.7,45.5,25
		C45.5,36.3,36.3,45.5,25,45.5z"/>
	<path fill-rule="evenodd" clip-rule="evenodd" fill="#FFFFFF" d="M33,14.2H17c-1.5,0-2.8,1.2-2.8,2.8v16c0,1.5,1.2,2.8,2.8,2.8h16
		c1.5,0,2.8-1.2,2.8-2.8V17C35.8,15.5,34.5,14.2,33,14.2z M28.9,17.6c0-0.5,0.4-1,1-1h2.4c0.5,0,1,0.4,1,1v2.3c0,0.5-0.4,1-1,1h-2.4
		c-0.5,0-1-0.4-1-1V17.6z M25,20.8c2.4,0,4.3,1.9,4.3,4.2c0,2.3-1.9,4.2-4.3,4.2c-2.4,0-4.3-1.9-4.3-4.2
		C20.7,22.6,22.6,20.8,25,20.8z M33.3,32.4c0,0.5-0.4,0.9-0.9,0.9h-15c-0.5,0-0.9-0.4-0.9-0.9v-9.1h2c-0.2,0.6-0.3,1.2-0.3,1.8
		c0,3.6,3,6.5,6.7,6.5c3.7,0,6.7-2.9,6.7-6.5c0-0.6-0.1-1.3-0.3-1.8h1.9V32.4z"/>
</svg>
