
<svg version="1.1" id="Layer_1" xmlns="http://www.w3.org/2000/svg" xmlns:xlink="http://www.w3.org/1999/xlink" x="0px" y="0px"
	 viewBox="0 0 50 50" enable-background="new 0 0 50 50" xml:space="preserve">

	<path fill="#FFFFFF" d="M38.3,15.6C38.2,15.5,38.2,15.5,38.3,15.6c-1.1,0.5-2.2,0.9-3.4,1.1c-1-1.1-2.4-1.7-3.9-1.7
		c-3,0-5.4,2.4-5.4,5.4c0,0.4,0,0.8,0.1,1.2c-4.5-0.2-8.5-2.4-11.2-5.7c-0.5,0.8-0.7,1.7-0.7,2.7c0,1.9,1,3.5,2.4,4.5
		c-0.9,0-1.7-0.3-2.5-0.7c0,0,0,0,0,0.1c0,2.6,1.9,4.8,4.3,5.3c-0.5,0.1-0.9,0.2-1.4,0.2c-0.3,0-0.7,0-1-0.1
		c0.7,2.2,2.7,3.7,5.1,3.8c-1.9,1.4-4.2,2.3-6.7,2.3c-0.4,0-0.9,0-1.3-0.1c2.4,1.5,5.2,2.4,8.3,2.4c10,0,15.4-8.2,15.4-15.4
		c0-0.2,0-0.5,0-0.7c1.1-0.8,2-1.7,2.7-2.8c-1,0.4-2,0.7-3.1,0.9C37,17.7,37.9,16.7,38.3,15.6z"/>
	<path fill="#FFFFFF" d="M25,3.6C13.2,3.6,3.6,13.2,3.6,25c0,11.8,9.6,21.4,21.4,21.4S46.4,36.8,46.4,25C46.4,13.2,36.8,3.6,25,3.6z
		 M25,45.5C13.7,45.5,4.5,36.3,4.5,25C4.5,13.7,13.7,4.5,25,4.5S45.5,13.7,45.5,25C45.5,36.3,36.3,45.5,25,45.5z"/>
</svg>
